<svg xmlns="http://www.w3.org/2000/svg" xmlns:xlink="http://www.w3.org/1999/xlink" width="500" zoomAndPan="magnify" viewBox="0 0 375 374.999991" height="500" preserveAspectRatio="xMidYMid meet" version="1.0"><defs><clipPath id="d366b6d0ca"><path d="M 46.359375 99.292969 L 328.359375 99.292969 L 328.359375 275.542969 L 46.359375 275.542969 Z M 46.359375 99.292969 " clip-rule="nonzero"/></clipPath><clipPath id="6886a37ac5"><path d="M 63 257 L 135 257 L 135 275.542969 L 63 275.542969 Z M 63 257 " clip-rule="nonzero"/></clipPath><clipPath id="33fec5663a"><path d="M 46.359375 187 L 117 187 L 117 206 L 46.359375 206 Z M 46.359375 187 " clip-rule="nonzero"/></clipPath></defs><path fill="#ffffff" d="M 204.984375 187.417969 C 204.984375 188.570312 205.042969 189.722656 205.15625 190.871094 C 205.265625 192.019531 205.4375 193.160156 205.660156 194.292969 C 205.886719 195.425781 206.167969 196.542969 206.503906 197.648438 C 206.835938 198.753906 207.226562 199.839844 207.667969 200.90625 C 208.109375 201.972656 208.601562 203.015625 209.148438 204.03125 C 209.691406 205.050781 210.285156 206.039062 210.925781 207 C 211.566406 207.960938 212.253906 208.886719 212.984375 209.777344 C 213.71875 210.671875 214.492188 211.523438 215.308594 212.339844 C 216.125 213.15625 216.980469 213.933594 217.871094 214.664062 C 218.765625 215.398438 219.691406 216.082031 220.652344 216.726562 C 221.609375 217.367188 222.601562 217.960938 223.617188 218.503906 C 224.636719 219.046875 225.679688 219.539062 226.746094 219.984375 C 227.8125 220.425781 228.898438 220.8125 230.003906 221.148438 C 231.105469 221.484375 232.226562 221.761719 233.359375 221.988281 C 234.488281 222.214844 235.628906 222.382812 236.78125 222.496094 C 237.929688 222.609375 239.082031 222.664062 240.234375 222.664062 C 241.390625 222.664062 242.539062 222.609375 243.691406 222.496094 C 244.839844 222.382812 245.980469 222.214844 247.113281 221.988281 C 248.242188 221.761719 249.363281 221.484375 250.46875 221.148438 C 251.570312 220.8125 252.65625 220.425781 253.722656 219.984375 C 254.789062 219.539062 255.832031 219.046875 256.851562 218.503906 C 257.871094 217.960938 258.859375 217.367188 259.820312 216.726562 C 260.777344 216.082031 261.703125 215.398438 262.597656 214.664062 C 263.488281 213.933594 264.34375 213.15625 265.160156 212.339844 C 265.976562 211.523438 266.75 210.671875 267.484375 209.777344 C 268.214844 208.886719 268.902344 207.960938 269.542969 207 C 270.183594 206.039062 270.777344 205.050781 271.324219 204.03125 C 271.867188 203.015625 272.359375 201.972656 272.800781 200.90625 C 273.242188 199.839844 273.632812 198.753906 273.964844 197.648438 C 274.300781 196.542969 274.582031 195.425781 274.808594 194.292969 C 275.03125 193.160156 275.203125 192.019531 275.316406 190.871094 C 275.429688 189.722656 275.484375 188.570312 275.484375 187.417969 C 275.484375 186.261719 275.429688 185.109375 275.316406 183.960938 C 275.203125 182.8125 275.03125 181.671875 274.808594 180.539062 C 274.582031 179.40625 274.300781 178.289062 273.964844 177.183594 C 273.632812 176.078125 273.242188 174.992188 272.800781 173.925781 C 272.359375 172.859375 271.867188 171.820312 271.324219 170.800781 C 270.777344 169.78125 270.183594 168.792969 269.542969 167.832031 C 268.902344 166.875 268.214844 165.945312 267.484375 165.054688 C 266.75 164.164062 265.976562 163.308594 265.160156 162.492188 C 264.34375 161.675781 263.488281 160.902344 262.597656 160.167969 C 261.703125 159.4375 260.777344 158.75 259.820312 158.109375 C 258.859375 157.464844 257.871094 156.875 256.851562 156.328125 C 255.832031 155.785156 254.789062 155.292969 253.722656 154.851562 C 252.65625 154.410156 251.570312 154.019531 250.46875 153.683594 C 249.363281 153.351562 248.242188 153.070312 247.113281 152.84375 C 245.980469 152.621094 244.839844 152.449219 243.691406 152.335938 C 242.539062 152.222656 241.390625 152.167969 240.234375 152.167969 C 239.082031 152.167969 237.929688 152.222656 236.78125 152.335938 C 235.628906 152.449219 234.488281 152.621094 233.359375 152.84375 C 232.226562 153.070312 231.105469 153.351562 230.003906 153.683594 C 228.898438 154.019531 227.8125 154.410156 226.746094 154.851562 C 225.679688 155.292969 224.636719 155.785156 223.617188 156.328125 C 222.601562 156.875 221.609375 157.464844 220.652344 158.109375 C 219.691406 158.75 218.765625 159.4375 217.871094 160.167969 C 216.980469 160.902344 216.125 161.675781 215.308594 162.492188 C 214.492188 163.308594 213.71875 164.164062 212.984375 165.054688 C 212.253906 165.945312 211.566406 166.875 210.925781 167.832031 C 210.285156 168.792969 209.691406 169.78125 209.148438 170.800781 C 208.601562 171.820312 208.109375 172.859375 207.667969 173.925781 C 207.226562 174.992188 206.835938 176.078125 206.503906 177.183594 C 206.167969 178.289062 205.886719 179.40625 205.660156 180.539062 C 205.4375 181.671875 205.265625 182.8125 205.15625 183.960938 C 205.042969 185.109375 204.984375 186.261719 204.984375 187.417969 Z M 257.859375 187.417969 C 257.859375 187.992188 257.832031 188.570312 257.773438 189.144531 C 257.71875 189.71875 257.632812 190.289062 257.519531 190.855469 C 257.410156 191.421875 257.269531 191.980469 257.101562 192.53125 C 256.933594 193.085938 256.738281 193.628906 256.519531 194.160156 C 256.296875 194.695312 256.050781 195.214844 255.777344 195.726562 C 255.507812 196.234375 255.210938 196.726562 254.890625 197.207031 C 254.570312 197.6875 254.226562 198.152344 253.859375 198.597656 C 253.492188 199.042969 253.105469 199.472656 252.699219 199.878906 C 252.289062 200.289062 251.863281 200.675781 251.414062 201.039062 C 250.96875 201.40625 250.507812 201.75 250.027344 202.070312 C 249.546875 202.390625 249.050781 202.6875 248.542969 202.960938 C 248.035156 203.230469 247.511719 203.480469 246.980469 203.699219 C 246.445312 203.921875 245.902344 204.113281 245.351562 204.28125 C 244.796875 204.449219 244.238281 204.589844 243.671875 204.703125 C 243.105469 204.816406 242.535156 204.898438 241.960938 204.957031 C 241.386719 205.011719 240.8125 205.042969 240.234375 205.042969 C 239.65625 205.042969 239.082031 205.011719 238.507812 204.957031 C 237.933594 204.898438 237.363281 204.816406 236.796875 204.703125 C 236.230469 204.589844 235.671875 204.449219 235.117188 204.28125 C 234.566406 204.113281 234.023438 203.921875 233.488281 203.699219 C 232.957031 203.480469 232.433594 203.230469 231.925781 202.960938 C 231.417969 202.6875 230.921875 202.390625 230.441406 202.070312 C 229.960938 201.75 229.5 201.40625 229.054688 201.039062 C 228.605469 200.675781 228.179688 200.289062 227.773438 199.878906 C 227.363281 199.472656 226.976562 199.042969 226.609375 198.597656 C 226.242188 198.152344 225.902344 197.6875 225.578125 197.207031 C 225.257812 196.726562 224.960938 196.234375 224.691406 195.726562 C 224.417969 195.214844 224.171875 194.695312 223.953125 194.160156 C 223.730469 193.628906 223.535156 193.085938 223.367188 192.53125 C 223.199219 191.980469 223.0625 191.421875 222.949219 190.855469 C 222.835938 190.289062 222.75 189.71875 222.695312 189.144531 C 222.636719 188.570312 222.609375 187.992188 222.609375 187.417969 C 222.609375 186.839844 222.636719 186.261719 222.695312 185.6875 C 222.75 185.113281 222.835938 184.542969 222.949219 183.976562 C 223.0625 183.414062 223.199219 182.851562 223.367188 182.300781 C 223.535156 181.75 223.730469 181.207031 223.953125 180.671875 C 224.171875 180.140625 224.417969 179.617188 224.691406 179.109375 C 224.960938 178.597656 225.257812 178.105469 225.578125 177.625 C 225.902344 177.144531 226.242188 176.683594 226.609375 176.234375 C 226.976562 175.789062 227.363281 175.363281 227.773438 174.953125 C 228.179688 174.546875 228.605469 174.160156 229.054688 173.792969 C 229.5 173.425781 229.960938 173.082031 230.441406 172.761719 C 230.921875 172.441406 231.417969 172.144531 231.925781 171.875 C 232.433594 171.601562 232.957031 171.355469 233.488281 171.132812 C 234.023438 170.914062 234.566406 170.71875 235.117188 170.550781 C 235.671875 170.382812 236.230469 170.242188 236.796875 170.128906 C 237.363281 170.019531 237.933594 169.933594 238.507812 169.875 C 239.082031 169.820312 239.65625 169.792969 240.234375 169.792969 C 240.8125 169.792969 241.386719 169.820312 241.960938 169.875 C 242.535156 169.933594 243.105469 170.019531 243.671875 170.128906 C 244.238281 170.242188 244.796875 170.382812 245.351562 170.550781 C 245.902344 170.71875 246.445312 170.914062 246.980469 171.132812 C 247.511719 171.355469 248.035156 171.601562 248.542969 171.875 C 249.050781 172.144531 249.546875 172.441406 250.027344 172.761719 C 250.507812 173.082031 250.96875 173.425781 251.414062 173.792969 C 251.863281 174.160156 252.289062 174.546875 252.699219 174.953125 C 253.105469 175.363281 253.492188 175.789062 253.859375 176.234375 C 254.226562 176.683594 254.570312 177.144531 254.890625 177.625 C 255.210938 178.105469 255.507812 178.597656 255.777344 179.109375 C 256.050781 179.617188 256.296875 180.140625 256.519531 180.671875 C 256.738281 181.207031 256.933594 181.75 257.101562 182.300781 C 257.269531 182.851562 257.410156 183.414062 257.519531 183.976562 C 257.632812 184.542969 257.71875 185.113281 257.773438 185.6875 C 257.832031 186.261719 257.859375 186.839844 257.859375 187.417969 Z M 257.859375 187.417969 " fill-opacity="1" fill-rule="nonzero"/><g clip-path="url(#d366b6d0ca)"><path fill="#ffffff" d="M 55.171875 116.917969 L 187.359375 116.917969 C 181.222656 121.503906 175.75 126.78125 170.945312 132.75 C 166.140625 138.71875 162.152344 145.191406 158.984375 152.167969 L 125.671875 152.167969 C 125.09375 152.167969 124.519531 152.222656 123.953125 152.335938 C 123.386719 152.449219 122.835938 152.617188 122.300781 152.839844 C 121.765625 153.058594 121.257812 153.332031 120.777344 153.652344 C 120.296875 153.972656 119.851562 154.339844 119.441406 154.75 C 119.03125 155.15625 118.667969 155.601562 118.34375 156.082031 C 118.023438 156.566406 117.75 157.074219 117.53125 157.609375 C 117.308594 158.140625 117.140625 158.691406 117.027344 159.261719 C 116.917969 159.828125 116.859375 160.402344 116.859375 160.980469 C 116.859375 161.558594 116.917969 162.132812 117.027344 162.699219 C 117.140625 163.265625 117.308594 163.816406 117.53125 164.351562 C 117.75 164.886719 118.023438 165.394531 118.34375 165.875 C 118.667969 166.355469 119.03125 166.800781 119.441406 167.210938 C 119.851562 167.621094 120.296875 167.984375 120.777344 168.308594 C 121.257812 168.628906 121.765625 168.898438 122.300781 169.121094 C 122.835938 169.34375 123.386719 169.511719 123.953125 169.621094 C 124.519531 169.734375 125.09375 169.792969 125.671875 169.792969 L 153.871094 169.792969 C 152.742188 175.613281 152.15625 181.488281 152.109375 187.417969 C 152.101562 193.484375 152.722656 199.488281 153.96875 205.429688 C 155.214844 211.367188 157.0625 217.113281 159.511719 222.664062 L 108.046875 222.664062 C 107.46875 222.664062 106.894531 222.722656 106.328125 222.835938 C 105.761719 222.949219 105.210938 223.113281 104.675781 223.335938 C 104.140625 223.558594 103.632812 223.828125 103.152344 224.152344 C 102.671875 224.472656 102.226562 224.835938 101.816406 225.246094 C 101.40625 225.65625 101.042969 226.101562 100.71875 226.582031 C 100.398438 227.0625 100.125 227.570312 99.90625 228.105469 C 99.683594 228.640625 99.515625 229.191406 99.402344 229.757812 C 99.292969 230.328125 99.234375 230.898438 99.234375 231.476562 C 99.234375 232.058594 99.292969 232.628906 99.402344 233.195312 C 99.515625 233.765625 99.683594 234.316406 99.90625 234.851562 C 100.125 235.386719 100.398438 235.894531 100.71875 236.375 C 101.042969 236.855469 101.40625 237.300781 101.816406 237.710938 C 102.226562 238.117188 102.671875 238.484375 103.152344 238.804688 C 103.632812 239.125 104.140625 239.398438 104.675781 239.621094 C 105.210938 239.839844 105.761719 240.007812 106.328125 240.121094 C 106.894531 240.234375 107.46875 240.289062 108.046875 240.289062 L 169.734375 240.289062 C 174.722656 247.050781 180.597656 252.925781 187.359375 257.914062 L 178.546875 257.914062 C 177.96875 257.914062 177.394531 257.972656 176.828125 258.085938 C 176.261719 258.195312 175.710938 258.363281 175.175781 258.585938 C 174.640625 258.808594 174.132812 259.078125 173.652344 259.398438 C 173.171875 259.722656 172.726562 260.085938 172.316406 260.496094 C 171.90625 260.90625 171.542969 261.351562 171.21875 261.832031 C 170.898438 262.3125 170.625 262.820312 170.40625 263.355469 C 170.183594 263.890625 170.015625 264.441406 169.902344 265.007812 C 169.792969 265.574219 169.734375 266.148438 169.734375 266.726562 C 169.734375 267.304688 169.792969 267.878906 169.902344 268.445312 C 170.015625 269.015625 170.183594 269.566406 170.40625 270.097656 C 170.625 270.632812 170.898438 271.140625 171.21875 271.621094 C 171.542969 272.105469 171.90625 272.550781 172.316406 272.957031 C 172.726562 273.367188 173.171875 273.734375 173.652344 274.054688 C 174.132812 274.375 174.640625 274.648438 175.175781 274.867188 C 175.710938 275.089844 176.261719 275.257812 176.828125 275.371094 C 177.394531 275.484375 177.96875 275.539062 178.546875 275.539062 L 240.234375 275.539062 C 241.675781 275.539062 243.117188 275.503906 244.558594 275.433594 C 246 275.363281 247.4375 275.257812 248.871094 275.113281 C 250.308594 274.972656 251.738281 274.796875 253.164062 274.585938 C 254.59375 274.375 256.011719 274.128906 257.425781 273.847656 C 258.839844 273.566406 260.25 273.25 261.648438 272.898438 C 263.046875 272.546875 264.4375 272.164062 265.816406 271.746094 C 267.195312 271.328125 268.566406 270.875 269.921875 270.386719 C 271.28125 269.902344 272.625 269.382812 273.957031 268.832031 C 275.292969 268.28125 276.609375 267.695312 277.914062 267.078125 C 279.214844 266.460938 280.503906 265.8125 281.777344 265.132812 C 283.046875 264.453125 284.304688 263.742188 285.539062 263.003906 C 286.777344 262.261719 287.996094 261.488281 289.195312 260.6875 C 290.394531 259.886719 291.570312 259.058594 292.730469 258.199219 C 293.890625 257.339844 295.027344 256.453125 296.140625 255.535156 C 297.253906 254.621094 298.347656 253.679688 299.414062 252.710938 C 300.484375 251.742188 301.527344 250.75 302.546875 249.730469 C 303.566406 248.710938 304.5625 247.664062 305.53125 246.597656 C 306.5 245.527344 307.441406 244.4375 308.355469 243.320312 C 309.269531 242.207031 310.15625 241.070312 311.015625 239.910156 C 311.875 238.753906 312.707031 237.574219 313.507812 236.375 C 314.308594 235.175781 315.082031 233.957031 315.820312 232.722656 C 316.5625 231.484375 317.273438 230.230469 317.953125 228.957031 C 318.632812 227.683594 319.28125 226.398438 319.898438 225.09375 C 320.515625 223.789062 321.097656 222.472656 321.652344 221.140625 C 322.203125 219.808594 322.722656 218.460938 323.207031 217.105469 C 323.695312 215.746094 324.144531 214.378906 324.566406 212.996094 C 324.984375 211.617188 325.367188 210.226562 325.71875 208.828125 C 326.070312 207.429688 326.386719 206.023438 326.667969 204.609375 C 326.949219 203.195312 327.195312 201.773438 327.40625 200.347656 C 327.617188 198.921875 327.792969 197.488281 327.933594 196.054688 C 328.078125 194.617188 328.183594 193.179688 328.253906 191.742188 C 328.324219 190.300781 328.359375 188.859375 328.359375 187.417969 C 328.359375 185.972656 328.324219 184.53125 328.253906 183.09375 C 328.183594 181.652344 328.078125 180.214844 327.933594 178.777344 C 327.792969 177.34375 327.617188 175.914062 327.40625 174.488281 C 327.195312 173.058594 326.949219 171.640625 326.667969 170.226562 C 326.386719 168.808594 326.070312 167.402344 325.71875 166.003906 C 325.367188 164.605469 324.984375 163.214844 324.566406 161.835938 C 324.144531 160.457031 323.695312 159.085938 323.207031 157.730469 C 322.722656 156.371094 322.203125 155.027344 321.652344 153.695312 C 321.097656 152.359375 320.515625 151.042969 319.898438 149.738281 C 319.28125 148.4375 318.632812 147.148438 317.953125 145.875 C 317.273438 144.605469 316.5625 143.347656 315.820312 142.113281 C 315.082031 140.875 314.308594 139.65625 313.507812 138.457031 C 312.707031 137.257812 311.875 136.082031 311.015625 134.921875 C 310.15625 133.761719 309.269531 132.628906 308.355469 131.511719 C 307.441406 130.398438 306.5 129.304688 305.53125 128.238281 C 304.5625 127.167969 303.566406 126.125 302.546875 125.105469 C 301.527344 124.085938 300.484375 123.089844 299.414062 122.121094 C 298.347656 121.152344 297.253906 120.210938 296.140625 119.296875 C 295.027344 118.382812 293.890625 117.496094 292.730469 116.636719 C 291.570312 115.777344 290.394531 114.945312 289.195312 114.144531 C 287.996094 113.34375 286.777344 112.574219 285.539062 111.832031 C 284.304688 111.089844 283.046875 110.378906 281.777344 109.699219 C 280.503906 109.019531 279.214844 108.371094 277.914062 107.753906 C 276.609375 107.136719 275.292969 106.554688 273.957031 106 C 272.625 105.449219 271.28125 104.929688 269.921875 104.445312 C 268.566406 103.960938 267.195312 103.507812 265.816406 103.089844 C 264.4375 102.667969 263.046875 102.285156 261.648438 101.933594 C 260.25 101.585938 258.839844 101.269531 257.425781 100.988281 C 256.011719 100.707031 254.59375 100.460938 253.164062 100.246094 C 251.738281 100.035156 250.308594 99.859375 248.871094 99.71875 C 247.4375 99.578125 246 99.472656 244.558594 99.398438 C 243.117188 99.328125 241.675781 99.292969 240.234375 99.292969 L 55.171875 99.292969 C 54.59375 99.292969 54.019531 99.351562 53.453125 99.464844 C 52.886719 99.574219 52.335938 99.742188 51.800781 99.964844 C 51.265625 100.1875 50.757812 100.457031 50.277344 100.777344 C 49.796875 101.101562 49.351562 101.464844 48.941406 101.875 C 48.53125 102.285156 48.167969 102.730469 47.84375 103.210938 C 47.523438 103.691406 47.25 104.199219 47.03125 104.734375 C 46.808594 105.269531 46.640625 105.820312 46.527344 106.386719 C 46.417969 106.953125 46.359375 107.527344 46.359375 108.105469 C 46.359375 108.683594 46.417969 109.257812 46.527344 109.824219 C 46.640625 110.394531 46.808594 110.945312 47.03125 111.476562 C 47.25 112.011719 47.523438 112.519531 47.84375 113.003906 C 48.167969 113.484375 48.53125 113.929688 48.941406 114.335938 C 49.351562 114.746094 49.796875 115.113281 50.277344 115.433594 C 50.757812 115.753906 51.265625 116.027344 51.800781 116.246094 C 52.335938 116.46875 52.886719 116.636719 53.453125 116.75 C 54.019531 116.863281 54.59375 116.917969 55.171875 116.917969 Z M 310.734375 187.417969 C 310.734375 188.570312 310.707031 189.722656 310.648438 190.875 C 310.59375 192.027344 310.507812 193.179688 310.394531 194.328125 C 310.28125 195.476562 310.140625 196.621094 309.972656 197.761719 C 309.800781 198.902344 309.605469 200.039062 309.378906 201.171875 C 309.15625 202.300781 308.902344 203.425781 308.621094 204.546875 C 308.339844 205.664062 308.035156 206.777344 307.699219 207.882812 C 307.363281 208.984375 307.003906 210.082031 306.613281 211.167969 C 306.226562 212.253906 305.808594 213.328125 305.367188 214.394531 C 304.925781 215.460938 304.460938 216.515625 303.964844 217.558594 C 303.472656 218.601562 302.953125 219.632812 302.410156 220.648438 C 301.867188 221.667969 301.296875 222.671875 300.703125 223.660156 C 300.109375 224.648438 299.496094 225.625 298.851562 226.582031 C 298.210938 227.542969 297.546875 228.484375 296.859375 229.414062 C 296.171875 230.339844 295.464844 231.25 294.730469 232.140625 C 294 233.03125 293.246094 233.90625 292.472656 234.761719 C 291.695312 235.617188 290.902344 236.449219 290.085938 237.265625 C 289.269531 238.082031 288.433594 238.878906 287.578125 239.652344 C 286.726562 240.425781 285.851562 241.179688 284.960938 241.914062 C 284.066406 242.644531 283.15625 243.355469 282.230469 244.042969 C 281.304688 244.730469 280.363281 245.394531 279.402344 246.035156 C 278.441406 246.675781 277.46875 247.292969 276.480469 247.886719 C 275.488281 248.476562 274.484375 249.046875 273.46875 249.589844 C 272.449219 250.132812 271.421875 250.652344 270.378906 251.144531 C 269.335938 251.640625 268.28125 252.105469 267.214844 252.546875 C 266.148438 252.988281 265.070312 253.40625 263.984375 253.792969 C 262.898438 254.183594 261.804688 254.542969 260.699219 254.878906 C 259.59375 255.214844 258.484375 255.523438 257.363281 255.800781 C 256.246094 256.082031 255.121094 256.335938 253.988281 256.558594 C 252.855469 256.785156 251.71875 256.984375 250.578125 257.152344 C 249.4375 257.320312 248.292969 257.460938 247.144531 257.574219 C 245.996094 257.6875 244.847656 257.773438 243.695312 257.828125 C 242.542969 257.886719 241.386719 257.914062 240.234375 257.914062 C 239.082031 257.914062 237.925781 257.886719 236.773438 257.828125 C 235.621094 257.773438 234.472656 257.6875 233.324219 257.574219 C 232.175781 257.460938 231.03125 257.320312 229.890625 257.152344 C 228.75 256.984375 227.613281 256.785156 226.480469 256.558594 C 225.347656 256.335938 224.222656 256.082031 223.105469 255.800781 C 221.984375 255.523438 220.875 255.214844 219.769531 254.878906 C 218.664062 254.542969 217.570312 254.183594 216.484375 253.792969 C 215.398438 253.40625 214.320312 252.988281 213.253906 252.546875 C 212.191406 252.105469 211.136719 251.640625 210.09375 251.144531 C 209.050781 250.652344 208.019531 250.132812 207 249.589844 C 205.984375 249.046875 204.980469 248.476562 203.992188 247.886719 C 203 247.292969 202.027344 246.675781 201.066406 246.035156 C 200.109375 245.394531 199.164062 244.730469 198.238281 244.042969 C 197.3125 243.355469 196.402344 242.644531 195.511719 241.914062 C 194.617188 241.179688 193.746094 240.425781 192.890625 239.652344 C 192.035156 238.878906 191.199219 238.082031 190.382812 237.265625 C 189.566406 236.449219 188.773438 235.617188 187.996094 234.761719 C 187.222656 233.90625 186.46875 233.03125 185.738281 232.140625 C 185.003906 231.25 184.296875 230.339844 183.609375 229.414062 C 182.921875 228.484375 182.257812 227.542969 181.617188 226.582031 C 180.976562 225.625 180.359375 224.648438 179.765625 223.660156 C 179.171875 222.671875 178.601562 221.667969 178.058594 220.648438 C 177.515625 219.632812 176.996094 218.601562 176.503906 217.558594 C 176.011719 216.515625 175.542969 215.460938 175.101562 214.394531 C 174.660156 213.328125 174.246094 212.253906 173.855469 211.167969 C 173.46875 210.082031 173.105469 208.984375 172.769531 207.882812 C 172.433594 206.777344 172.128906 205.664062 171.847656 204.546875 C 171.566406 203.425781 171.3125 202.300781 171.089844 201.171875 C 170.863281 200.039062 170.667969 198.902344 170.496094 197.761719 C 170.328125 196.621094 170.1875 195.476562 170.074219 194.328125 C 169.960938 193.179688 169.875 192.027344 169.820312 190.875 C 169.761719 189.722656 169.734375 188.570312 169.734375 187.417969 C 169.734375 186.261719 169.761719 185.109375 169.820312 183.957031 C 169.875 182.804688 169.960938 181.65625 170.074219 180.507812 C 170.1875 179.359375 170.328125 178.214844 170.496094 177.074219 C 170.667969 175.929688 170.863281 174.792969 171.089844 173.664062 C 171.3125 172.53125 171.566406 171.40625 171.847656 170.285156 C 172.128906 169.167969 172.433594 168.054688 172.769531 166.953125 C 173.105469 165.847656 173.46875 164.753906 173.855469 163.667969 C 174.246094 162.582031 174.660156 161.503906 175.101562 160.4375 C 175.542969 159.371094 176.011719 158.316406 176.503906 157.273438 C 176.996094 156.230469 177.515625 155.203125 178.058594 154.183594 C 178.601562 153.167969 179.171875 152.164062 179.765625 151.171875 C 180.359375 150.183594 180.976562 149.210938 181.617188 148.25 C 182.257812 147.289062 182.921875 146.347656 183.609375 145.421875 C 184.296875 144.496094 185.003906 143.585938 185.738281 142.691406 C 186.46875 141.800781 187.222656 140.929688 187.996094 140.074219 C 188.773438 139.21875 189.566406 138.382812 190.382812 137.566406 C 191.199219 136.75 192.035156 135.957031 192.890625 135.179688 C 193.746094 134.40625 194.617188 133.652344 195.511719 132.921875 C 196.402344 132.1875 197.3125 131.480469 198.238281 130.792969 C 199.164062 130.105469 200.109375 129.441406 201.066406 128.800781 C 202.027344 128.160156 203 127.542969 203.992188 126.949219 C 204.980469 126.355469 205.984375 125.785156 207 125.242188 C 208.019531 124.699219 209.050781 124.179688 210.09375 123.6875 C 211.136719 123.195312 212.191406 122.726562 213.253906 122.285156 C 214.320312 121.84375 215.398438 121.429688 216.484375 121.039062 C 217.570312 120.652344 218.664062 120.289062 219.769531 119.953125 C 220.875 119.617188 221.984375 119.3125 223.105469 119.03125 C 224.222656 118.75 225.347656 118.5 226.480469 118.273438 C 227.613281 118.046875 228.75 117.851562 229.890625 117.679688 C 231.03125 117.511719 232.175781 117.371094 233.324219 117.257812 C 234.472656 117.144531 235.621094 117.058594 236.773438 117.003906 C 237.925781 116.945312 239.082031 116.917969 240.234375 116.917969 C 241.386719 116.917969 242.542969 116.945312 243.695312 117.003906 C 244.847656 117.058594 245.996094 117.144531 247.144531 117.257812 C 248.292969 117.371094 249.4375 117.511719 250.578125 117.679688 C 251.71875 117.851562 252.855469 118.046875 253.988281 118.273438 C 255.121094 118.5 256.246094 118.75 257.363281 119.03125 C 258.484375 119.3125 259.59375 119.617188 260.699219 119.953125 C 261.804688 120.289062 262.898438 120.652344 263.984375 121.039062 C 265.070312 121.429688 266.148438 121.84375 267.214844 122.285156 C 268.28125 122.726562 269.335938 123.195312 270.378906 123.6875 C 271.421875 124.179688 272.449219 124.699219 273.46875 125.242188 C 274.484375 125.785156 275.488281 126.355469 276.480469 126.949219 C 277.46875 127.542969 278.441406 128.160156 279.402344 128.800781 C 280.363281 129.441406 281.304688 130.105469 282.230469 130.792969 C 283.15625 131.480469 284.066406 132.1875 284.960938 132.921875 C 285.851562 133.652344 286.726562 134.40625 287.578125 135.179688 C 288.433594 135.957031 289.269531 136.75 290.085938 137.566406 C 290.902344 138.382812 291.695312 139.21875 292.472656 140.074219 C 293.246094 140.929688 294 141.800781 294.730469 142.691406 C 295.464844 143.585938 296.171875 144.496094 296.859375 145.421875 C 297.546875 146.347656 298.210938 147.289062 298.851562 148.25 C 299.496094 149.210938 300.109375 150.183594 300.703125 151.171875 C 301.296875 152.164062 301.867188 153.167969 302.410156 154.183594 C 302.953125 155.203125 303.472656 156.230469 303.964844 157.273438 C 304.460938 158.316406 304.925781 159.371094 305.367188 160.4375 C 305.808594 161.503906 306.226562 162.582031 306.613281 163.667969 C 307.003906 164.753906 307.363281 165.847656 307.699219 166.953125 C 308.035156 168.054688 308.339844 169.167969 308.621094 170.285156 C 308.902344 171.40625 309.15625 172.53125 309.378906 173.664062 C 309.605469 174.792969 309.800781 175.929688 309.972656 177.074219 C 310.140625 178.214844 310.28125 179.359375 310.394531 180.507812 C 310.507812 181.65625 310.59375 182.804688 310.648438 183.957031 C 310.707031 185.109375 310.734375 186.261719 310.734375 187.417969 Z M 310.734375 187.417969 " fill-opacity="1" fill-rule="nonzero"/></g><g clip-path="url(#6886a37ac5)"><path fill="#ffffff" d="M 125.671875 257.914062 L 72.796875 257.914062 C 72.21875 257.914062 71.644531 257.972656 71.078125 258.085938 C 70.511719 258.195312 69.960938 258.363281 69.425781 258.585938 C 68.890625 258.808594 68.382812 259.078125 67.902344 259.398438 C 67.421875 259.722656 66.976562 260.085938 66.566406 260.496094 C 66.15625 260.90625 65.792969 261.351562 65.46875 261.832031 C 65.148438 262.3125 64.875 262.820312 64.65625 263.355469 C 64.433594 263.890625 64.265625 264.441406 64.152344 265.007812 C 64.042969 265.574219 63.984375 266.148438 63.984375 266.726562 C 63.984375 267.304688 64.042969 267.878906 64.152344 268.445312 C 64.265625 269.015625 64.433594 269.566406 64.65625 270.097656 C 64.875 270.632812 65.148438 271.140625 65.46875 271.621094 C 65.792969 272.105469 66.15625 272.550781 66.566406 272.957031 C 66.976562 273.367188 67.421875 273.734375 67.902344 274.054688 C 68.382812 274.375 68.890625 274.648438 69.425781 274.867188 C 69.960938 275.089844 70.511719 275.257812 71.078125 275.371094 C 71.644531 275.484375 72.21875 275.539062 72.796875 275.539062 L 125.671875 275.539062 C 126.25 275.539062 126.824219 275.484375 127.390625 275.371094 C 127.957031 275.257812 128.511719 275.089844 129.042969 274.867188 C 129.578125 274.648438 130.085938 274.375 130.566406 274.054688 C 131.050781 273.734375 131.496094 273.367188 131.902344 272.957031 C 132.3125 272.550781 132.679688 272.105469 133 271.621094 C 133.320312 271.140625 133.59375 270.632812 133.8125 270.097656 C 134.035156 269.566406 134.203125 269.015625 134.316406 268.445312 C 134.429688 267.878906 134.484375 267.304688 134.484375 266.726562 C 134.484375 266.148438 134.429688 265.574219 134.316406 265.007812 C 134.203125 264.441406 134.035156 263.890625 133.8125 263.355469 C 133.59375 262.820312 133.320312 262.3125 133 261.832031 C 132.679688 261.351562 132.3125 260.90625 131.902344 260.496094 C 131.496094 260.085938 131.050781 259.722656 130.566406 259.398438 C 130.085938 259.078125 129.578125 258.808594 129.042969 258.585938 C 128.511719 258.363281 127.957031 258.195312 127.390625 258.085938 C 126.824219 257.972656 126.25 257.914062 125.671875 257.914062 Z M 125.671875 257.914062 " fill-opacity="1" fill-rule="nonzero"/></g><g clip-path="url(#33fec5663a)"><path fill="#ffffff" d="M 116.859375 196.230469 C 116.859375 195.648438 116.804688 195.078125 116.691406 194.507812 C 116.578125 193.941406 116.410156 193.390625 116.1875 192.855469 C 115.96875 192.320312 115.695312 191.8125 115.375 191.332031 C 115.054688 190.851562 114.6875 190.40625 114.277344 189.996094 C 113.871094 189.589844 113.425781 189.222656 112.941406 188.902344 C 112.460938 188.582031 111.953125 188.308594 111.417969 188.085938 C 110.886719 187.867188 110.332031 187.699219 109.765625 187.585938 C 109.199219 187.472656 108.625 187.417969 108.046875 187.417969 L 55.171875 187.417969 C 54.59375 187.417969 54.019531 187.472656 53.453125 187.585938 C 52.886719 187.699219 52.335938 187.867188 51.800781 188.085938 C 51.265625 188.308594 50.757812 188.582031 50.277344 188.902344 C 49.796875 189.222656 49.351562 189.589844 48.941406 189.996094 C 48.53125 190.40625 48.167969 190.851562 47.84375 191.332031 C 47.523438 191.8125 47.25 192.320312 47.03125 192.855469 C 46.808594 193.390625 46.640625 193.941406 46.527344 194.507812 C 46.417969 195.078125 46.359375 195.648438 46.359375 196.230469 C 46.359375 196.808594 46.417969 197.378906 46.527344 197.949219 C 46.640625 198.515625 46.808594 199.066406 47.03125 199.601562 C 47.25 200.136719 47.523438 200.644531 47.84375 201.125 C 48.167969 201.605469 48.53125 202.050781 48.941406 202.460938 C 49.351562 202.871094 49.796875 203.234375 50.277344 203.554688 C 50.757812 203.878906 51.265625 204.148438 51.800781 204.371094 C 52.335938 204.59375 52.886719 204.757812 53.453125 204.871094 C 54.019531 204.984375 54.59375 205.042969 55.171875 205.042969 L 108.046875 205.042969 C 108.625 205.042969 109.199219 204.984375 109.765625 204.871094 C 110.332031 204.757812 110.886719 204.59375 111.417969 204.371094 C 111.953125 204.148438 112.460938 203.878906 112.941406 203.554688 C 113.425781 203.234375 113.871094 202.871094 114.277344 202.460938 C 114.6875 202.050781 115.054688 201.605469 115.375 201.125 C 115.695312 200.644531 115.96875 200.136719 116.1875 199.601562 C 116.410156 199.066406 116.578125 198.515625 116.691406 197.949219 C 116.804688 197.378906 116.859375 196.808594 116.859375 196.230469 Z M 116.859375 196.230469 " fill-opacity="1" fill-rule="nonzero"/></g></svg>