<svg xmlns="http://www.w3.org/2000/svg" xmlns:xlink="http://www.w3.org/1999/xlink" width="500" zoomAndPan="magnify" viewBox="0 0 375 374.999991" height="500" preserveAspectRatio="xMidYMid meet" version="1.0"><defs><clipPath id="0118534f02"><path d="M 77.707031 188.421875 L 181 188.421875 L 181 349.816406 L 77.707031 349.816406 Z M 77.707031 188.421875 " clip-rule="nonzero"/></clipPath><clipPath id="ddd0f40a7a"><path d="M 194 188.421875 L 297.292969 188.421875 L 297.292969 349.816406 L 194 349.816406 Z M 194 188.421875 " clip-rule="nonzero"/></clipPath><clipPath id="78e6fadb5b"><path d="M 77.707031 25.460938 L 297.292969 25.460938 L 297.292969 162.699219 L 77.707031 162.699219 Z M 77.707031 25.460938 " clip-rule="nonzero"/></clipPath><clipPath id="c31c9f7225"><path d="M 91 148 L 147 148 L 147 162.699219 L 91 162.699219 Z M 91 148 " clip-rule="nonzero"/></clipPath><clipPath id="42687a7af3"><path d="M 77.707031 94 L 133 94 L 133 108 L 77.707031 108 Z M 77.707031 94 " clip-rule="nonzero"/></clipPath></defs><g clip-path="url(#0118534f02)"><path fill="#ffffff" d="M 85.027344 349.769531 C 84.003906 349.972656 82.980469 349.972656 81.953125 349.769531 C 81.257812 349.460938 80.625 349.054688 80.058594 348.546875 C 79.492188 348.039062 79.019531 347.457031 78.636719 346.796875 C 78.253906 346.136719 77.984375 345.4375 77.828125 344.691406 C 77.667969 343.945312 77.628906 343.195312 77.707031 342.4375 L 77.707031 195.800781 C 77.703125 195.101562 77.800781 194.417969 77.996094 193.75 C 78.191406 193.082031 78.476562 192.453125 78.851562 191.867188 C 79.230469 191.28125 79.679688 190.761719 80.210938 190.308594 C 80.738281 189.855469 81.320312 189.484375 81.953125 189.199219 C 82.582031 188.898438 83.238281 188.695312 83.921875 188.585938 C 84.609375 188.476562 85.296875 188.46875 85.984375 188.558594 C 86.675781 188.652344 87.335938 188.839844 87.96875 189.121094 C 88.605469 189.40625 89.183594 189.773438 89.710938 190.226562 L 177.546875 263.546875 C 177.957031 263.882812 178.328125 264.261719 178.660156 264.679688 C 178.988281 265.101562 179.265625 265.550781 179.496094 266.03125 C 179.722656 266.515625 179.898438 267.015625 180.015625 267.535156 C 180.132812 268.058594 180.191406 268.585938 180.191406 269.117188 C 180.191406 269.652344 180.132812 270.179688 180.015625 270.699219 C 179.898438 271.21875 179.722656 271.722656 179.496094 272.203125 C 179.265625 272.683594 178.988281 273.136719 178.660156 273.554688 C 178.328125 273.976562 177.957031 274.351562 177.546875 274.691406 L 89.710938 348.007812 C 89.0625 348.574219 88.335938 349.007812 87.527344 349.3125 C 86.722656 349.613281 85.890625 349.765625 85.027344 349.769531 Z M 92.347656 211.488281 L 92.347656 326.746094 L 161.441406 269.117188 Z M 92.347656 211.488281 " fill-opacity="1" fill-rule="nonzero"/></g><g clip-path="url(#ddd0f40a7a)"><path fill="#ffffff" d="M 202.140625 349.769531 C 201.113281 349.972656 200.089844 349.972656 199.066406 349.769531 C 198.367188 349.460938 197.738281 349.054688 197.171875 348.546875 C 196.605469 348.039062 196.128906 347.457031 195.746094 346.796875 C 195.367188 346.136719 195.097656 345.4375 194.9375 344.691406 C 194.777344 343.945312 194.738281 343.195312 194.820312 342.4375 L 194.820312 195.800781 C 194.824219 195.105469 194.925781 194.425781 195.125 193.761719 C 195.324219 193.09375 195.609375 192.472656 195.988281 191.886719 C 196.363281 191.304688 196.8125 190.785156 197.332031 190.328125 C 197.855469 189.875 198.433594 189.5 199.0625 189.207031 C 199.691406 188.917969 200.347656 188.71875 201.03125 188.613281 C 201.714844 188.507812 202.402344 188.5 203.089844 188.589844 C 203.777344 188.679688 204.4375 188.863281 205.074219 189.144531 C 205.707031 189.421875 206.289062 189.78125 206.824219 190.226562 L 294.65625 263.546875 C 295.070312 263.882812 295.441406 264.261719 295.769531 264.679688 C 296.097656 265.101562 296.378906 265.550781 296.605469 266.03125 C 296.835938 266.515625 297.007812 267.015625 297.125 267.535156 C 297.242188 268.058594 297.300781 268.585938 297.300781 269.117188 C 297.300781 269.652344 297.242188 270.179688 297.125 270.699219 C 297.007812 271.21875 296.835938 271.722656 296.605469 272.203125 C 296.378906 272.683594 296.097656 273.136719 295.769531 273.554688 C 295.441406 273.976562 295.070312 274.351562 294.65625 274.691406 L 206.824219 348.007812 C 206.171875 348.574219 205.445312 349.007812 204.640625 349.3125 C 203.832031 349.613281 203 349.765625 202.140625 349.769531 Z M 209.457031 211.488281 L 209.457031 326.746094 L 278.554688 269.117188 Z M 209.457031 211.488281 " fill-opacity="1" fill-rule="nonzero"/></g><path fill="#ffffff" d="M 201.222656 94.078125 C 201.222656 94.976562 201.269531 95.875 201.355469 96.769531 C 201.445312 97.664062 201.574219 98.550781 201.75 99.433594 C 201.925781 100.316406 202.144531 101.1875 202.40625 102.046875 C 202.667969 102.90625 202.96875 103.753906 203.3125 104.582031 C 203.65625 105.414062 204.042969 106.226562 204.464844 107.019531 C 204.890625 107.8125 205.351562 108.582031 205.851562 109.328125 C 206.347656 110.074219 206.882812 110.796875 207.453125 111.492188 C 208.023438 112.1875 208.628906 112.851562 209.261719 113.488281 C 209.898438 114.125 210.5625 114.726562 211.257812 115.296875 C 211.953125 115.867188 212.675781 116.402344 213.421875 116.902344 C 214.171875 117.402344 214.941406 117.863281 215.734375 118.285156 C 216.527344 118.710938 217.335938 119.09375 218.167969 119.4375 C 219 119.78125 219.84375 120.085938 220.703125 120.34375 C 221.5625 120.605469 222.433594 120.824219 223.316406 121 C 224.199219 121.175781 225.085938 121.308594 225.980469 121.394531 C 226.875 121.484375 227.773438 121.527344 228.671875 121.527344 C 229.570312 121.527344 230.46875 121.484375 231.363281 121.394531 C 232.257812 121.308594 233.144531 121.175781 234.027344 121 C 234.910156 120.824219 235.777344 120.605469 236.640625 120.34375 C 237.5 120.085938 238.34375 119.78125 239.175781 119.4375 C 240.007812 119.09375 240.816406 118.710938 241.609375 118.285156 C 242.402344 117.863281 243.171875 117.402344 243.921875 116.902344 C 244.667969 116.402344 245.390625 115.867188 246.085938 115.296875 C 246.78125 114.726562 247.445312 114.125 248.082031 113.488281 C 248.714844 112.851562 249.320312 112.1875 249.890625 111.492188 C 250.460938 110.796875 250.996094 110.074219 251.492188 109.328125 C 251.992188 108.582031 252.453125 107.8125 252.878906 107.019531 C 253.300781 106.226562 253.6875 105.414062 254.03125 104.582031 C 254.375 103.753906 254.675781 102.90625 254.9375 102.046875 C 255.199219 101.1875 255.417969 100.316406 255.59375 99.433594 C 255.765625 98.550781 255.898438 97.664062 255.988281 96.769531 C 256.074219 95.875 256.121094 94.976562 256.121094 94.078125 C 256.121094 93.179688 256.074219 92.285156 255.988281 91.390625 C 255.898438 90.496094 255.765625 89.605469 255.59375 88.726562 C 255.417969 87.84375 255.199219 86.972656 254.9375 86.113281 C 254.675781 85.25 254.375 84.40625 254.03125 83.574219 C 253.6875 82.746094 253.300781 81.933594 252.878906 81.140625 C 252.453125 80.347656 251.992188 79.578125 251.492188 78.832031 C 250.996094 78.082031 250.460938 77.363281 249.890625 76.667969 C 249.320312 75.972656 248.714844 75.304688 248.082031 74.671875 C 247.445312 74.035156 246.78125 73.433594 246.085938 72.863281 C 245.390625 72.292969 244.667969 71.757812 243.921875 71.257812 C 243.171875 70.757812 242.402344 70.296875 241.609375 69.871094 C 240.816406 69.449219 240.007812 69.066406 239.175781 68.722656 C 238.34375 68.378906 237.5 68.074219 236.640625 67.8125 C 235.777344 67.550781 234.910156 67.335938 234.027344 67.160156 C 233.144531 66.984375 232.257812 66.851562 231.363281 66.765625 C 230.46875 66.675781 229.570312 66.632812 228.671875 66.632812 C 227.773438 66.632812 226.875 66.675781 225.980469 66.765625 C 225.085938 66.851562 224.199219 66.984375 223.316406 67.160156 C 222.433594 67.335938 221.5625 67.550781 220.703125 67.8125 C 219.84375 68.074219 219 68.378906 218.167969 68.722656 C 217.335938 69.066406 216.527344 69.449219 215.734375 69.871094 C 214.941406 70.296875 214.171875 70.757812 213.421875 71.257812 C 212.675781 71.757812 211.953125 72.292969 211.257812 72.863281 C 210.5625 73.433594 209.898438 74.035156 209.261719 74.671875 C 208.628906 75.304688 208.023438 75.972656 207.453125 76.667969 C 206.882812 77.363281 206.347656 78.082031 205.851562 78.832031 C 205.351562 79.578125 204.890625 80.347656 204.464844 81.140625 C 204.042969 81.933594 203.65625 82.746094 203.3125 83.574219 C 202.96875 84.40625 202.667969 85.25 202.40625 86.113281 C 202.144531 86.972656 201.925781 87.84375 201.75 88.726562 C 201.574219 89.605469 201.445312 90.496094 201.355469 91.390625 C 201.269531 92.285156 201.222656 93.179688 201.222656 94.078125 Z M 242.394531 94.078125 C 242.394531 94.980469 242.308594 95.875 242.132812 96.757812 C 241.957031 97.640625 241.695312 98.5 241.351562 99.332031 C 241.007812 100.164062 240.582031 100.953125 240.082031 101.703125 C 239.582031 102.453125 239.011719 103.148438 238.375 103.785156 C 237.738281 104.421875 237.046875 104.988281 236.296875 105.492188 C 235.546875 105.992188 234.757812 106.414062 233.921875 106.757812 C 233.089844 107.105469 232.234375 107.363281 231.347656 107.539062 C 230.464844 107.714844 229.574219 107.804688 228.671875 107.804688 C 227.769531 107.804688 226.878906 107.714844 225.996094 107.539062 C 225.109375 107.363281 224.253906 107.105469 223.417969 106.757812 C 222.585938 106.414062 221.796875 105.992188 221.046875 105.492188 C 220.296875 104.988281 219.605469 104.421875 218.96875 103.785156 C 218.332031 103.148438 217.761719 102.453125 217.261719 101.703125 C 216.761719 100.953125 216.335938 100.164062 215.992188 99.332031 C 215.648438 98.5 215.386719 97.640625 215.210938 96.757812 C 215.035156 95.875 214.949219 94.980469 214.949219 94.078125 C 214.949219 93.179688 215.035156 92.285156 215.210938 91.402344 C 215.386719 90.519531 215.648438 89.660156 215.992188 88.828125 C 216.335938 87.996094 216.761719 87.203125 217.261719 86.453125 C 217.761719 85.707031 218.332031 85.011719 218.96875 84.375 C 219.605469 83.738281 220.296875 83.167969 221.046875 82.667969 C 221.796875 82.167969 222.585938 81.746094 223.417969 81.398438 C 224.253906 81.054688 225.109375 80.796875 225.996094 80.621094 C 226.878906 80.445312 227.769531 80.355469 228.671875 80.355469 C 229.574219 80.355469 230.464844 80.445312 231.347656 80.621094 C 232.234375 80.796875 233.089844 81.054688 233.921875 81.398438 C 234.757812 81.746094 235.546875 82.167969 236.296875 82.667969 C 237.046875 83.167969 237.738281 83.738281 238.375 84.375 C 239.011719 85.011719 239.582031 85.707031 240.082031 86.453125 C 240.582031 87.203125 241.007812 87.996094 241.351562 88.828125 C 241.695312 89.660156 241.957031 90.519531 242.132812 91.402344 C 242.308594 92.285156 242.394531 93.179688 242.394531 94.078125 Z M 242.394531 94.078125 " fill-opacity="1" fill-rule="nonzero"/><g clip-path="url(#78e6fadb5b)"><path fill="#ffffff" d="M 84.570312 39.183594 L 187.5 39.183594 C 182.71875 42.753906 178.460938 46.863281 174.71875 51.511719 C 170.976562 56.160156 167.871094 61.199219 165.40625 66.632812 L 139.464844 66.632812 C 139.015625 66.632812 138.570312 66.675781 138.128906 66.761719 C 137.6875 66.851562 137.257812 66.980469 136.839844 67.152344 C 136.425781 67.328125 136.027344 67.539062 135.652344 67.789062 C 135.28125 68.039062 134.933594 68.324219 134.613281 68.640625 C 134.296875 68.960938 134.011719 69.308594 133.761719 69.679688 C 133.511719 70.054688 133.300781 70.453125 133.125 70.867188 C 132.953125 71.285156 132.824219 71.714844 132.734375 72.15625 C 132.648438 72.597656 132.605469 73.042969 132.605469 73.492188 C 132.605469 73.945312 132.648438 74.390625 132.734375 74.832031 C 132.824219 75.273438 132.953125 75.703125 133.125 76.121094 C 133.300781 76.535156 133.511719 76.929688 133.761719 77.304688 C 134.011719 77.679688 134.296875 78.027344 134.613281 78.347656 C 134.933594 78.664062 135.28125 78.949219 135.652344 79.199219 C 136.027344 79.449219 136.425781 79.660156 136.839844 79.832031 C 137.257812 80.003906 137.6875 80.136719 138.128906 80.222656 C 138.570312 80.3125 139.015625 80.355469 139.464844 80.355469 L 161.425781 80.355469 C 160.546875 84.886719 160.085938 89.460938 160.050781 94.078125 C 160.046875 98.804688 160.527344 103.480469 161.5 108.105469 C 162.46875 112.730469 163.910156 117.203125 165.816406 121.527344 L 125.742188 121.527344 C 125.292969 121.527344 124.84375 121.570312 124.402344 121.660156 C 123.960938 121.746094 123.53125 121.878906 123.117188 122.050781 C 122.699219 122.222656 122.304688 122.433594 121.929688 122.683594 C 121.554688 122.933594 121.207031 123.21875 120.890625 123.539062 C 120.570312 123.855469 120.289062 124.203125 120.035156 124.578125 C 119.785156 124.953125 119.574219 125.347656 119.402344 125.761719 C 119.230469 126.179688 119.101562 126.609375 119.011719 127.050781 C 118.925781 127.492188 118.878906 127.9375 118.878906 128.390625 C 118.878906 128.839844 118.925781 129.285156 119.011719 129.726562 C 119.101562 130.167969 119.230469 130.597656 119.402344 131.015625 C 119.574219 131.429688 119.785156 131.828125 120.035156 132.203125 C 120.289062 132.578125 120.570312 132.921875 120.890625 133.242188 C 121.207031 133.558594 121.554688 133.84375 121.929688 134.09375 C 122.304688 134.34375 122.699219 134.554688 123.117188 134.730469 C 123.53125 134.902344 123.960938 135.03125 124.402344 135.121094 C 124.84375 135.207031 125.292969 135.25 125.742188 135.25 L 173.777344 135.25 C 177.660156 140.515625 182.234375 145.089844 187.5 148.976562 L 180.636719 148.976562 C 180.1875 148.976562 179.742188 149.019531 179.300781 149.105469 C 178.859375 149.195312 178.429688 149.324219 178.011719 149.496094 C 177.597656 149.667969 177.199219 149.882812 176.824219 150.132812 C 176.449219 150.382812 176.105469 150.667969 175.785156 150.984375 C 175.46875 151.304688 175.183594 151.648438 174.933594 152.023438 C 174.683594 152.398438 174.472656 152.792969 174.296875 153.210938 C 174.125 153.628906 173.996094 154.054688 173.90625 154.5 C 173.820312 154.941406 173.777344 155.386719 173.777344 155.835938 C 173.777344 156.289062 173.820312 156.734375 173.90625 157.175781 C 173.996094 157.617188 174.125 158.046875 174.296875 158.464844 C 174.472656 158.878906 174.683594 159.273438 174.933594 159.648438 C 175.183594 160.023438 175.46875 160.371094 175.785156 160.6875 C 176.105469 161.007812 176.449219 161.292969 176.824219 161.542969 C 177.199219 161.792969 177.597656 162.003906 178.011719 162.175781 C 178.429688 162.347656 178.859375 162.480469 179.300781 162.566406 C 179.742188 162.65625 180.1875 162.699219 180.636719 162.699219 L 228.671875 162.699219 C 229.792969 162.699219 230.917969 162.671875 232.039062 162.617188 C 233.160156 162.5625 234.28125 162.480469 235.398438 162.367188 C 236.515625 162.257812 237.628906 162.121094 238.742188 161.957031 C 239.851562 161.792969 240.957031 161.601562 242.058594 161.378906 C 243.160156 161.160156 244.253906 160.914062 245.34375 160.644531 C 246.433594 160.371094 247.515625 160.070312 248.589844 159.746094 C 249.664062 159.417969 250.730469 159.066406 251.789062 158.6875 C 252.847656 158.308594 253.894531 157.90625 254.929688 157.476562 C 255.96875 157.046875 256.996094 156.589844 258.011719 156.109375 C 259.027344 155.628906 260.027344 155.125 261.019531 154.597656 C 262.007812 154.066406 262.984375 153.515625 263.949219 152.9375 C 264.914062 152.359375 265.859375 151.757812 266.792969 151.132812 C 267.726562 150.511719 268.644531 149.863281 269.546875 149.195312 C 270.449219 148.527344 271.335938 147.835938 272.203125 147.125 C 273.070312 146.410156 273.921875 145.675781 274.753906 144.921875 C 275.585938 144.167969 276.398438 143.394531 277.191406 142.601562 C 277.988281 141.808594 278.761719 140.992188 279.515625 140.160156 C 280.269531 139.328125 281.003906 138.480469 281.714844 137.609375 C 282.429688 136.742188 283.117188 135.859375 283.789062 134.957031 C 284.457031 134.054688 285.101562 133.136719 285.726562 132.203125 C 286.351562 131.269531 286.953125 130.320312 287.527344 129.355469 C 288.105469 128.394531 288.660156 127.417969 289.1875 126.425781 C 289.71875 125.4375 290.222656 124.433594 290.703125 123.417969 C 291.183594 122.402344 291.636719 121.375 292.066406 120.339844 C 292.496094 119.300781 292.902344 118.253906 293.28125 117.195312 C 293.660156 116.140625 294.011719 115.074219 294.335938 114 C 294.664062 112.925781 294.960938 111.84375 295.234375 110.753906 C 295.507812 109.664062 295.753906 108.566406 295.972656 107.464844 C 296.191406 106.363281 296.382812 105.257812 296.546875 104.148438 C 296.714844 103.039062 296.851562 101.921875 296.960938 100.804688 C 297.070312 99.6875 297.152344 98.566406 297.207031 97.445312 C 297.265625 96.324219 297.292969 95.203125 297.292969 94.078125 C 297.292969 92.957031 297.265625 91.835938 297.207031 90.710938 C 297.152344 89.589844 297.070312 88.472656 296.960938 87.355469 C 296.851562 86.234375 296.714844 85.121094 296.546875 84.011719 C 296.382812 82.898438 296.191406 81.792969 295.972656 80.691406 C 295.753906 79.589844 295.507812 78.496094 295.234375 77.40625 C 294.960938 76.316406 294.664062 75.234375 294.335938 74.160156 C 294.011719 73.085938 293.660156 72.019531 293.28125 70.960938 C 292.902344 69.90625 292.496094 68.859375 292.066406 67.820312 C 291.636719 66.78125 291.183594 65.757812 290.703125 64.742188 C 290.222656 63.726562 289.71875 62.722656 289.1875 61.734375 C 288.660156 60.742188 288.105469 59.765625 287.527344 58.800781 C 286.953125 57.839844 286.351562 56.890625 285.726562 55.957031 C 285.101562 55.023438 284.457031 54.105469 283.789062 53.203125 C 283.117188 52.300781 282.429688 51.414062 281.714844 50.546875 C 281.003906 49.679688 280.269531 48.828125 279.515625 47.996094 C 278.761719 47.164062 277.988281 46.351562 277.191406 45.558594 C 276.398438 44.765625 275.585938 43.988281 274.753906 43.234375 C 273.921875 42.480469 273.070312 41.75 272.203125 41.035156 C 271.335938 40.324219 270.449219 39.632812 269.546875 38.964844 C 268.644531 38.292969 267.726562 37.648438 266.792969 37.023438 C 265.859375 36.402344 264.914062 35.800781 263.949219 35.222656 C 262.984375 34.644531 262.007812 34.09375 261.019531 33.5625 C 260.027344 33.03125 259.027344 32.527344 258.011719 32.046875 C 256.996094 31.566406 255.96875 31.113281 254.929688 30.683594 C 253.894531 30.253906 252.847656 29.847656 251.789062 29.472656 C 250.730469 29.09375 249.664062 28.742188 248.589844 28.414062 C 247.515625 28.089844 246.433594 27.789062 245.34375 27.515625 C 244.253906 27.242188 243.160156 26.996094 242.058594 26.777344 C 240.957031 26.558594 239.851562 26.367188 238.742188 26.203125 C 237.628906 26.039062 236.515625 25.898438 235.398438 25.789062 C 234.28125 25.679688 233.160156 25.597656 232.039062 25.542969 C 230.917969 25.488281 229.792969 25.460938 228.671875 25.460938 L 84.570312 25.460938 C 84.121094 25.460938 83.671875 25.503906 83.230469 25.589844 C 82.789062 25.679688 82.359375 25.808594 81.945312 25.980469 C 81.527344 26.15625 81.132812 26.367188 80.757812 26.617188 C 80.382812 26.867188 80.035156 27.152344 79.71875 27.46875 C 79.398438 27.789062 79.117188 28.136719 78.863281 28.507812 C 78.613281 28.882812 78.402344 29.28125 78.230469 29.695312 C 78.058594 30.113281 77.929688 30.542969 77.839844 30.984375 C 77.753906 31.425781 77.707031 31.871094 77.707031 32.320312 C 77.707031 32.773438 77.753906 33.21875 77.839844 33.660156 C 77.929688 34.101562 78.058594 34.53125 78.230469 34.949219 C 78.402344 35.363281 78.613281 35.757812 78.863281 36.132812 C 79.117188 36.507812 79.398438 36.855469 79.71875 37.175781 C 80.035156 37.492188 80.382812 37.777344 80.757812 38.027344 C 81.132812 38.277344 81.527344 38.488281 81.945312 38.660156 C 82.359375 38.832031 82.789062 38.964844 83.230469 39.050781 C 83.671875 39.140625 84.121094 39.183594 84.570312 39.183594 Z M 283.566406 94.078125 C 283.566406 95.878906 283.480469 97.671875 283.304688 99.460938 C 283.125 101.25 282.863281 103.027344 282.511719 104.789062 C 282.160156 106.550781 281.726562 108.292969 281.203125 110.015625 C 280.683594 111.734375 280.078125 113.425781 279.390625 115.085938 C 278.699219 116.75 277.933594 118.371094 277.085938 119.957031 C 276.238281 121.542969 275.316406 123.082031 274.316406 124.578125 C 273.316406 126.074219 272.246094 127.515625 271.105469 128.90625 C 269.964844 130.292969 268.761719 131.625 267.488281 132.898438 C 266.21875 134.167969 264.886719 135.375 263.496094 136.515625 C 262.105469 137.65625 260.664062 138.726562 259.171875 139.722656 C 257.675781 140.722656 256.136719 141.644531 254.550781 142.492188 C 252.964844 143.339844 251.339844 144.109375 249.679688 144.796875 C 248.019531 145.484375 246.328125 146.089844 244.605469 146.613281 C 242.886719 147.132812 241.144531 147.570312 239.382812 147.921875 C 237.617188 148.269531 235.839844 148.535156 234.050781 148.710938 C 232.261719 148.886719 230.46875 148.976562 228.671875 148.976562 C 226.875 148.976562 225.082031 148.886719 223.292969 148.710938 C 221.5 148.535156 219.726562 148.269531 217.960938 147.921875 C 216.199219 147.570312 214.457031 147.132812 212.738281 146.613281 C 211.015625 146.089844 209.324219 145.484375 207.664062 144.796875 C 206.003906 144.109375 204.378906 143.339844 202.792969 142.492188 C 201.207031 141.644531 199.667969 140.722656 198.171875 139.722656 C 196.679688 138.726562 195.234375 137.65625 193.847656 136.515625 C 192.457031 135.375 191.125 134.167969 189.855469 132.898438 C 188.582031 131.625 187.378906 130.292969 186.238281 128.90625 C 185.097656 127.515625 184.027344 126.074219 183.027344 124.578125 C 182.027344 123.082031 181.105469 121.542969 180.257812 119.957031 C 179.410156 118.371094 178.644531 116.75 177.953125 115.085938 C 177.265625 113.425781 176.660156 111.734375 176.140625 110.015625 C 175.617188 108.292969 175.179688 106.550781 174.832031 104.789062 C 174.480469 103.027344 174.214844 101.25 174.039062 99.460938 C 173.863281 97.671875 173.777344 95.878906 173.777344 94.078125 C 173.777344 92.28125 173.863281 90.488281 174.039062 88.699219 C 174.214844 86.910156 174.480469 85.132812 174.832031 83.371094 C 175.179688 81.605469 175.617188 79.863281 176.140625 78.144531 C 176.660156 76.421875 177.265625 74.734375 177.953125 73.070312 C 178.644531 71.410156 179.410156 69.789062 180.257812 68.203125 C 181.105469 66.617188 182.027344 65.074219 183.027344 63.582031 C 184.027344 62.085938 185.097656 60.644531 186.238281 59.253906 C 187.378906 57.863281 188.582031 56.535156 189.855469 55.261719 C 191.125 53.992188 192.457031 52.785156 193.847656 51.644531 C 195.234375 50.503906 196.679688 49.433594 198.171875 48.433594 C 199.667969 47.4375 201.207031 46.511719 202.792969 45.664062 C 204.378906 44.816406 206.003906 44.050781 207.664062 43.363281 C 209.324219 42.675781 211.015625 42.070312 212.738281 41.546875 C 214.457031 41.027344 216.199219 40.589844 217.960938 40.238281 C 219.726562 39.886719 221.5 39.625 223.292969 39.449219 C 225.082031 39.273438 226.875 39.183594 228.671875 39.183594 C 230.46875 39.183594 232.261719 39.273438 234.050781 39.449219 C 235.839844 39.625 237.617188 39.886719 239.382812 40.238281 C 241.144531 40.589844 242.886719 41.027344 244.605469 41.546875 C 246.328125 42.070312 248.019531 42.675781 249.679688 43.363281 C 251.339844 44.050781 252.964844 44.816406 254.550781 45.664062 C 256.136719 46.511719 257.675781 47.4375 259.171875 48.433594 C 260.664062 49.433594 262.105469 50.503906 263.496094 51.644531 C 264.886719 52.785156 266.21875 53.992188 267.488281 55.261719 C 268.761719 56.535156 269.964844 57.863281 271.105469 59.253906 C 272.246094 60.644531 273.316406 62.085938 274.316406 63.582031 C 275.316406 65.074219 276.238281 66.617188 277.085938 68.203125 C 277.933594 69.789062 278.699219 71.410156 279.390625 73.070312 C 280.078125 74.734375 280.683594 76.421875 281.203125 78.144531 C 281.726562 79.863281 282.160156 81.605469 282.511719 83.371094 C 282.863281 85.132812 283.125 86.910156 283.304688 88.699219 C 283.480469 90.488281 283.566406 92.28125 283.566406 94.078125 Z M 283.566406 94.078125 " fill-opacity="1" fill-rule="nonzero"/></g><g clip-path="url(#c31c9f7225)"><path fill="#ffffff" d="M 139.464844 148.976562 L 98.292969 148.976562 C 97.84375 148.976562 97.398438 149.019531 96.957031 149.105469 C 96.515625 149.195312 96.085938 149.324219 95.667969 149.496094 C 95.253906 149.667969 94.855469 149.882812 94.480469 150.132812 C 94.109375 150.382812 93.761719 150.667969 93.441406 150.984375 C 93.125 151.304688 92.839844 151.648438 92.589844 152.023438 C 92.339844 152.398438 92.128906 152.792969 91.953125 153.210938 C 91.78125 153.628906 91.652344 154.054688 91.5625 154.5 C 91.476562 154.941406 91.433594 155.386719 91.433594 155.835938 C 91.433594 156.289062 91.476562 156.734375 91.5625 157.175781 C 91.652344 157.617188 91.78125 158.046875 91.953125 158.464844 C 92.128906 158.878906 92.339844 159.273438 92.589844 159.648438 C 92.839844 160.023438 93.125 160.371094 93.441406 160.6875 C 93.761719 161.007812 94.109375 161.292969 94.480469 161.542969 C 94.855469 161.792969 95.253906 162.003906 95.667969 162.175781 C 96.085938 162.347656 96.515625 162.480469 96.957031 162.566406 C 97.398438 162.65625 97.84375 162.699219 98.292969 162.699219 L 139.464844 162.699219 C 139.917969 162.699219 140.363281 162.65625 140.804688 162.566406 C 141.246094 162.480469 141.675781 162.347656 142.09375 162.175781 C 142.507812 162.003906 142.902344 161.792969 143.277344 161.542969 C 143.652344 161.292969 144 161.007812 144.320312 160.6875 C 144.636719 160.371094 144.921875 160.023438 145.171875 159.648438 C 145.421875 159.273438 145.632812 158.878906 145.804688 158.464844 C 145.976562 158.046875 146.109375 157.617188 146.195312 157.175781 C 146.285156 156.734375 146.328125 156.289062 146.328125 155.835938 C 146.328125 155.386719 146.285156 154.941406 146.195312 154.5 C 146.109375 154.054688 145.976562 153.628906 145.804688 153.210938 C 145.632812 152.792969 145.421875 152.398438 145.171875 152.023438 C 144.921875 151.648438 144.636719 151.304688 144.320312 150.984375 C 144 150.667969 143.652344 150.382812 143.277344 150.132812 C 142.902344 149.882812 142.507812 149.667969 142.09375 149.496094 C 141.675781 149.324219 141.246094 149.195312 140.804688 149.105469 C 140.363281 149.019531 139.917969 148.976562 139.464844 148.976562 Z M 139.464844 148.976562 " fill-opacity="1" fill-rule="nonzero"/></g><g clip-path="url(#42687a7af3)"><path fill="#ffffff" d="M 132.605469 100.941406 C 132.605469 100.492188 132.558594 100.042969 132.472656 99.601562 C 132.382812 99.160156 132.253906 98.730469 132.082031 98.316406 C 131.910156 97.898438 131.699219 97.503906 131.449219 97.128906 C 131.199219 96.753906 130.914062 96.40625 130.59375 96.089844 C 130.277344 95.769531 129.929688 95.484375 129.554688 95.234375 C 129.179688 94.984375 128.785156 94.773438 128.367188 94.601562 C 127.953125 94.429688 127.523438 94.300781 127.082031 94.210938 C 126.640625 94.125 126.191406 94.078125 125.742188 94.078125 L 84.570312 94.078125 C 84.121094 94.078125 83.671875 94.125 83.230469 94.210938 C 82.789062 94.300781 82.359375 94.429688 81.945312 94.601562 C 81.527344 94.773438 81.132812 94.984375 80.757812 95.234375 C 80.382812 95.484375 80.035156 95.769531 79.71875 96.089844 C 79.398438 96.40625 79.117188 96.753906 78.863281 97.128906 C 78.613281 97.503906 78.402344 97.898438 78.230469 98.316406 C 78.058594 98.730469 77.929688 99.160156 77.839844 99.601562 C 77.753906 100.042969 77.707031 100.492188 77.707031 100.941406 C 77.707031 101.390625 77.753906 101.839844 77.839844 102.28125 C 77.929688 102.722656 78.058594 103.152344 78.230469 103.566406 C 78.402344 103.984375 78.613281 104.378906 78.863281 104.753906 C 79.117188 105.128906 79.398438 105.476562 79.71875 105.792969 C 80.035156 106.113281 80.382812 106.398438 80.757812 106.648438 C 81.132812 106.898438 81.527344 107.109375 81.945312 107.28125 C 82.359375 107.453125 82.789062 107.582031 83.230469 107.671875 C 83.671875 107.757812 84.121094 107.804688 84.570312 107.804688 L 125.742188 107.804688 C 126.191406 107.804688 126.640625 107.757812 127.082031 107.671875 C 127.523438 107.582031 127.953125 107.453125 128.367188 107.28125 C 128.785156 107.109375 129.179688 106.898438 129.554688 106.648438 C 129.929688 106.398438 130.277344 106.113281 130.59375 105.792969 C 130.914062 105.476562 131.199219 105.128906 131.449219 104.753906 C 131.699219 104.378906 131.910156 103.984375 132.082031 103.566406 C 132.253906 103.152344 132.382812 102.722656 132.472656 102.28125 C 132.558594 101.839844 132.605469 101.390625 132.605469 100.941406 Z M 132.605469 100.941406 " fill-opacity="1" fill-rule="nonzero"/></g></svg>