<svg xmlns="http://www.w3.org/2000/svg" xmlns:xlink="http://www.w3.org/1999/xlink" width="500" zoomAndPan="magnify" viewBox="0 0 375 374.999991" height="500" preserveAspectRatio="xMidYMid meet" version="1.0"><defs><filter x="0%" y="0%" width="100%" height="100%" id="4d51fecfd5"><feColorMatrix values="0 0 0 0 1 0 0 0 0 1 0 0 0 0 1 0 0 0 1 0" color-interpolation-filters="sRGB"/></filter><mask id="9cf8b3ebb1"><g filter="url(#4d51fecfd5)"><rect x="-37.5" width="450" fill="#000000" y="-37.499999" height="449.999989" fill-opacity="0.5176"/></g></mask><clipPath id="17e425699b"><path d="M 17.457031 0.730469 L 177 0.730469 L 177 250.472656 L 17.457031 250.472656 Z M 17.457031 0.730469 " clip-rule="nonzero"/></clipPath><clipPath id="a10d4e0f2d"><path d="M 198 0.730469 L 357.800781 0.730469 L 357.800781 250.472656 L 198 250.472656 Z M 198 0.730469 " clip-rule="nonzero"/></clipPath><clipPath id="e7daf1a40c"><rect x="0" width="375" y="0" height="274"/></clipPath><clipPath id="41ed83cb10"><path d="M 17.1875 81.207031 L 357.527344 81.207031 L 357.527344 293.773438 L 17.1875 293.773438 Z M 17.1875 81.207031 " clip-rule="nonzero"/></clipPath><clipPath id="ea30a9e2be"><path d="M 38 272 L 124 272 L 124 293.773438 L 38 293.773438 Z M 38 272 " clip-rule="nonzero"/></clipPath><clipPath id="a99b89de81"><path d="M 17.1875 187 L 103 187 L 103 209 L 17.1875 209 Z M 17.1875 187 " clip-rule="nonzero"/></clipPath></defs><g mask="url(#9cf8b3ebb1)"><g transform="matrix(1, 0, 0, 1, 0, 62)"><g clip-path="url(#e7daf1a40c)"><g clip-path="url(#17e425699b)"><path fill="#ffffff" d="M 28.804688 250.402344 C 27.214844 250.71875 25.625 250.71875 24.039062 250.402344 C 23.503906 250.167969 22.988281 249.890625 22.496094 249.574219 C 22.003906 249.257812 21.539062 248.902344 21.101562 248.511719 C 20.664062 248.121094 20.261719 247.699219 19.894531 247.246094 C 19.523438 246.789062 19.191406 246.308594 18.898438 245.804688 C 18.605469 245.296875 18.351562 244.769531 18.140625 244.222656 C 17.929688 243.675781 17.761719 243.117188 17.640625 242.542969 C 17.519531 241.972656 17.441406 241.394531 17.414062 240.808594 C 17.382812 240.222656 17.398438 239.640625 17.457031 239.058594 L 17.457031 12.144531 C 17.453125 11.066406 17.601562 10.011719 17.902344 8.976562 C 18.203125 7.941406 18.648438 6.96875 19.230469 6.0625 C 19.816406 5.15625 20.515625 4.351562 21.335938 3.648438 C 22.152344 2.945312 23.054688 2.375 24.039062 1.933594 C 25.011719 1.472656 26.027344 1.15625 27.089844 0.984375 C 28.152344 0.816406 29.21875 0.804688 30.285156 0.945312 C 31.355469 1.085938 32.378906 1.375 33.363281 1.8125 C 34.34375 2.253906 35.246094 2.824219 36.0625 3.523438 L 172.199219 116.980469 C 172.519531 117.238281 172.824219 117.515625 173.113281 117.808594 C 173.402344 118.101562 173.671875 118.410156 173.925781 118.734375 C 174.179688 119.058594 174.414062 119.394531 174.632812 119.746094 C 174.847656 120.09375 175.046875 120.457031 175.222656 120.828125 C 175.398438 121.199219 175.554688 121.578125 175.6875 121.96875 C 175.824219 122.359375 175.9375 122.753906 176.027344 123.15625 C 176.117188 123.554688 176.183594 123.960938 176.230469 124.371094 C 176.277344 124.78125 176.300781 125.191406 176.300781 125.601562 C 176.300781 126.011719 176.277344 126.421875 176.230469 126.832031 C 176.183594 127.242188 176.117188 127.648438 176.027344 128.046875 C 175.9375 128.449219 175.824219 128.84375 175.6875 129.234375 C 175.554688 129.625 175.398438 130.003906 175.222656 130.375 C 175.046875 130.746094 174.847656 131.109375 174.632812 131.457031 C 174.414062 131.808594 174.179688 132.144531 173.925781 132.46875 C 173.671875 132.792969 173.402344 133.101562 173.113281 133.394531 C 172.824219 133.6875 172.519531 133.964844 172.199219 134.222656 L 36.0625 247.679688 C 35.054688 248.554688 33.929688 249.226562 32.679688 249.695312 C 31.429688 250.164062 30.136719 250.398438 28.804688 250.402344 Z M 40.148438 36.425781 L 40.148438 214.777344 L 147.242188 125.601562 Z M 40.148438 36.425781 " fill-opacity="1" fill-rule="nonzero"/></g><g clip-path="url(#a10d4e0f2d)"><path fill="#ffffff" d="M 210.320312 250.402344 C 208.730469 250.71875 207.140625 250.71875 205.554688 250.402344 C 205.019531 250.167969 204.503906 249.890625 204.011719 249.574219 C 203.519531 249.257812 203.054688 248.902344 202.617188 248.511719 C 202.179688 248.121094 201.777344 247.699219 201.410156 247.246094 C 201.039062 246.789062 200.707031 246.308594 200.414062 245.804688 C 200.121094 245.296875 199.867188 244.769531 199.65625 244.222656 C 199.445312 243.675781 199.28125 243.117188 199.15625 242.542969 C 199.035156 241.972656 198.957031 241.394531 198.929688 240.808594 C 198.898438 240.222656 198.914062 239.640625 198.972656 239.058594 L 198.972656 12.144531 C 198.984375 11.070312 199.140625 10.019531 199.449219 8.992188 C 199.757812 7.960938 200.203125 6.996094 200.785156 6.09375 C 201.367188 5.191406 202.0625 4.386719 202.871094 3.683594 C 203.683594 2.976562 204.574219 2.398438 205.546875 1.945312 C 206.523438 1.496094 207.542969 1.1875 208.601562 1.027344 C 209.664062 0.863281 210.726562 0.851562 211.792969 0.992188 C 212.859375 1.128906 213.882812 1.414062 214.867188 1.847656 C 215.851562 2.277344 216.753906 2.835938 217.578125 3.523438 L 353.714844 116.980469 C 354.035156 117.238281 354.339844 117.515625 354.628906 117.808594 C 354.917969 118.101562 355.1875 118.410156 355.441406 118.734375 C 355.695312 119.058594 355.929688 119.394531 356.148438 119.746094 C 356.363281 120.09375 356.5625 120.457031 356.738281 120.828125 C 356.914062 121.199219 357.070312 121.578125 357.207031 121.96875 C 357.339844 122.359375 357.453125 122.753906 357.542969 123.15625 C 357.632812 123.554688 357.703125 123.960938 357.746094 124.371094 C 357.792969 124.78125 357.816406 125.191406 357.816406 125.601562 C 357.816406 126.011719 357.792969 126.421875 357.746094 126.832031 C 357.703125 127.242188 357.632812 127.648438 357.542969 128.046875 C 357.453125 128.449219 357.339844 128.84375 357.207031 129.234375 C 357.070312 129.625 356.914062 130.003906 356.738281 130.375 C 356.5625 130.746094 356.363281 131.109375 356.148438 131.457031 C 355.929688 131.808594 355.695312 132.144531 355.441406 132.46875 C 355.1875 132.792969 354.917969 133.101562 354.628906 133.394531 C 354.339844 133.6875 354.035156 133.964844 353.714844 134.222656 L 217.578125 247.679688 C 216.570312 248.554688 215.445312 249.226562 214.195312 249.695312 C 212.945312 250.164062 211.652344 250.398438 210.320312 250.402344 Z M 221.664062 36.425781 L 221.664062 214.777344 L 328.757812 125.601562 Z M 221.664062 36.425781 " fill-opacity="1" fill-rule="nonzero"/></g></g></g></g><path fill="#ffffff" d="M 208.628906 187.488281 C 208.628906 188.882812 208.695312 190.273438 208.832031 191.65625 C 208.96875 193.042969 209.175781 194.417969 209.445312 195.785156 C 209.71875 197.148438 210.054688 198.5 210.460938 199.832031 C 210.863281 201.164062 211.332031 202.472656 211.867188 203.757812 C 212.398438 205.046875 212.996094 206.300781 213.652344 207.53125 C 214.308594 208.757812 215.023438 209.949219 215.796875 211.109375 C 216.574219 212.265625 217.402344 213.382812 218.285156 214.460938 C 219.167969 215.535156 220.105469 216.566406 221.089844 217.550781 C 222.074219 218.535156 223.105469 219.46875 224.183594 220.351562 C 225.257812 221.234375 226.378906 222.0625 227.535156 222.839844 C 228.695312 223.613281 229.886719 224.328125 231.117188 224.984375 C 232.347656 225.640625 233.605469 226.234375 234.890625 226.765625 C 236.179688 227.300781 237.488281 227.769531 238.820312 228.171875 C 240.15625 228.578125 241.503906 228.914062 242.871094 229.1875 C 244.238281 229.457031 245.613281 229.660156 247 229.796875 C 248.386719 229.933594 249.777344 230.003906 251.171875 230.003906 C 252.566406 230.003906 253.953125 229.933594 255.339844 229.796875 C 256.726562 229.660156 258.105469 229.457031 259.472656 229.1875 C 260.835938 228.914062 262.1875 228.574219 263.519531 228.171875 C 264.855469 227.769531 266.164062 227.300781 267.453125 226.765625 C 268.738281 226.234375 269.996094 225.640625 271.226562 224.984375 C 272.453125 224.328125 273.648438 223.613281 274.808594 222.839844 C 275.964844 222.0625 277.082031 221.234375 278.160156 220.351562 C 279.238281 219.46875 280.269531 218.535156 281.253906 217.550781 C 282.238281 216.566406 283.171875 215.535156 284.058594 214.460938 C 284.941406 213.382812 285.769531 212.265625 286.542969 211.109375 C 287.320312 209.949219 288.035156 208.757812 288.691406 207.53125 C 289.347656 206.300781 289.941406 205.046875 290.476562 203.757812 C 291.007812 202.472656 291.476562 201.164062 291.882812 199.832031 C 292.285156 198.5 292.625 197.148438 292.898438 195.785156 C 293.167969 194.417969 293.371094 193.042969 293.507812 191.65625 C 293.644531 190.273438 293.714844 188.882812 293.714844 187.488281 C 293.714844 186.097656 293.644531 184.707031 293.507812 183.324219 C 293.371094 181.9375 293.167969 180.5625 292.898438 179.195312 C 292.625 177.832031 292.285156 176.480469 291.882812 175.148438 C 291.476562 173.816406 291.007812 172.507812 290.476562 171.222656 C 289.941406 169.933594 289.347656 168.679688 288.691406 167.449219 C 288.035156 166.222656 287.320312 165.027344 286.542969 163.871094 C 285.769531 162.714844 284.941406 161.597656 284.058594 160.519531 C 283.171875 159.445312 282.238281 158.414062 281.253906 157.429688 C 280.269531 156.445312 279.238281 155.511719 278.160156 154.628906 C 277.082031 153.746094 275.964844 152.914062 274.808594 152.140625 C 273.648438 151.367188 272.453125 150.652344 271.226562 149.996094 C 269.996094 149.339844 268.738281 148.746094 267.453125 148.214844 C 266.164062 147.679688 264.855469 147.210938 263.519531 146.808594 C 262.1875 146.402344 260.835938 146.066406 259.472656 145.792969 C 258.105469 145.523438 256.726562 145.320312 255.339844 145.183594 C 253.953125 145.046875 252.566406 144.976562 251.171875 144.976562 C 249.777344 144.976562 248.386719 145.046875 247 145.183594 C 245.613281 145.320312 244.238281 145.523438 242.871094 145.792969 C 241.503906 146.066406 240.15625 146.402344 238.820312 146.808594 C 237.488281 147.210938 236.179688 147.679688 234.890625 148.214844 C 233.605469 148.746094 232.347656 149.339844 231.117188 149.996094 C 229.886719 150.652344 228.695312 151.367188 227.535156 152.140625 C 226.378906 152.914062 225.257812 153.746094 224.183594 154.628906 C 223.105469 155.511719 222.074219 156.445312 221.089844 157.429688 C 220.105469 158.414062 219.167969 159.445312 218.285156 160.519531 C 217.402344 161.597656 216.574219 162.714844 215.796875 163.871094 C 215.023438 165.027344 214.308594 166.222656 213.652344 167.449219 C 212.996094 168.679688 212.398438 169.933594 211.867188 171.222656 C 211.332031 172.507812 210.863281 173.816406 210.460938 175.148438 C 210.054688 176.480469 209.71875 177.832031 209.445312 179.195312 C 209.175781 180.5625 208.96875 181.9375 208.832031 183.324219 C 208.695312 184.707031 208.628906 186.097656 208.628906 187.488281 Z M 272.441406 187.488281 C 272.441406 188.1875 272.410156 188.878906 272.339844 189.574219 C 272.273438 190.265625 272.171875 190.953125 272.035156 191.636719 C 271.898438 192.320312 271.730469 192.996094 271.527344 193.660156 C 271.324219 194.328125 271.089844 194.980469 270.824219 195.625 C 270.558594 196.269531 270.257812 196.894531 269.929688 197.511719 C 269.601562 198.125 269.246094 198.71875 268.859375 199.300781 C 268.472656 199.878906 268.054688 200.4375 267.613281 200.976562 C 267.171875 201.511719 266.707031 202.027344 266.210938 202.519531 C 265.71875 203.011719 265.203125 203.480469 264.664062 203.921875 C 264.128906 204.363281 263.570312 204.777344 262.988281 205.164062 C 262.410156 205.550781 261.8125 205.910156 261.199219 206.238281 C 260.585938 206.566406 259.957031 206.863281 259.3125 207.128906 C 258.667969 207.394531 258.011719 207.628906 257.347656 207.832031 C 256.679688 208.03125 256.003906 208.203125 255.320312 208.339844 C 254.636719 208.472656 253.949219 208.574219 253.257812 208.644531 C 252.5625 208.710938 251.867188 208.746094 251.171875 208.746094 C 250.476562 208.746094 249.78125 208.710938 249.085938 208.644531 C 248.394531 208.574219 247.703125 208.472656 247.023438 208.339844 C 246.339844 208.203125 245.664062 208.03125 244.996094 207.832031 C 244.328125 207.628906 243.675781 207.394531 243.03125 207.128906 C 242.386719 206.863281 241.757812 206.566406 241.144531 206.238281 C 240.53125 205.910156 239.933594 205.550781 239.355469 205.164062 C 238.773438 204.777344 238.214844 204.363281 237.675781 203.921875 C 237.136719 203.480469 236.621094 203.011719 236.128906 202.519531 C 235.636719 202.027344 235.171875 201.511719 234.726562 200.976562 C 234.285156 200.4375 233.871094 199.878906 233.484375 199.300781 C 233.097656 198.71875 232.738281 198.125 232.410156 197.511719 C 232.082031 196.894531 231.785156 196.269531 231.519531 195.625 C 231.253906 194.980469 231.019531 194.328125 230.816406 193.660156 C 230.613281 192.996094 230.445312 192.320312 230.308594 191.636719 C 230.171875 190.953125 230.070312 190.265625 230.003906 189.574219 C 229.933594 188.878906 229.898438 188.1875 229.898438 187.488281 C 229.898438 186.792969 229.933594 186.097656 230.003906 185.40625 C 230.070312 184.714844 230.171875 184.027344 230.308594 183.34375 C 230.445312 182.660156 230.613281 181.984375 230.816406 181.320312 C 231.019531 180.652344 231.253906 180 231.519531 179.355469 C 231.785156 178.710938 232.082031 178.085938 232.410156 177.46875 C 232.738281 176.855469 233.097656 176.257812 233.484375 175.679688 C 233.871094 175.101562 234.285156 174.542969 234.726562 174.003906 C 235.171875 173.46875 235.636719 172.953125 236.128906 172.460938 C 236.621094 171.96875 237.136719 171.5 237.675781 171.058594 C 238.214844 170.617188 238.773438 170.203125 239.355469 169.816406 C 239.933594 169.429688 240.53125 169.070312 241.144531 168.742188 C 241.757812 168.414062 242.386719 168.117188 243.03125 167.851562 C 243.675781 167.585938 244.328125 167.351562 244.996094 167.148438 C 245.664062 166.945312 246.339844 166.777344 247.023438 166.640625 C 247.703125 166.507812 248.394531 166.40625 249.085938 166.335938 C 249.78125 166.269531 250.476562 166.234375 251.171875 166.234375 C 251.867188 166.234375 252.5625 166.269531 253.257812 166.335938 C 253.949219 166.40625 254.636719 166.507812 255.320312 166.640625 C 256.003906 166.777344 256.679688 166.945312 257.347656 167.148438 C 258.011719 167.351562 258.667969 167.585938 259.3125 167.851562 C 259.957031 168.117188 260.585938 168.414062 261.199219 168.742188 C 261.8125 169.070312 262.410156 169.429688 262.988281 169.816406 C 263.570312 170.203125 264.128906 170.617188 264.664062 171.058594 C 265.203125 171.5 265.71875 171.96875 266.210938 172.460938 C 266.707031 172.953125 267.171875 173.46875 267.613281 174.003906 C 268.054688 174.542969 268.472656 175.101562 268.859375 175.679688 C 269.246094 176.257812 269.601562 176.855469 269.929688 177.46875 C 270.257812 178.085938 270.558594 178.710938 270.824219 179.355469 C 271.089844 180 271.324219 180.652344 271.527344 181.320312 C 271.730469 181.984375 271.898438 182.660156 272.035156 183.34375 C 272.171875 184.027344 272.273438 184.714844 272.339844 185.40625 C 272.410156 186.097656 272.441406 186.792969 272.441406 187.488281 Z M 272.441406 187.488281 " fill-opacity="1" fill-rule="nonzero"/><g clip-path="url(#41ed83cb10)"><path fill="#ffffff" d="M 27.820312 102.464844 L 187.355469 102.464844 C 179.949219 107.996094 173.34375 114.359375 167.546875 121.558594 C 161.746094 128.757812 156.933594 136.5625 153.109375 144.976562 L 112.90625 144.976562 C 112.210938 144.976562 111.515625 145.046875 110.832031 145.183594 C 110.148438 145.316406 109.484375 145.519531 108.835938 145.785156 C 108.191406 146.054688 107.578125 146.382812 107 146.769531 C 106.417969 147.15625 105.878906 147.597656 105.386719 148.089844 C 104.894531 148.585938 104.453125 149.121094 104.0625 149.703125 C 103.675781 150.28125 103.347656 150.894531 103.082031 151.539062 C 102.8125 152.183594 102.613281 152.847656 102.476562 153.53125 C 102.339844 154.21875 102.273438 154.90625 102.273438 155.605469 C 102.273438 156.304688 102.339844 156.996094 102.476562 157.679688 C 102.613281 158.363281 102.8125 159.027344 103.082031 159.671875 C 103.347656 160.316406 103.675781 160.929688 104.0625 161.511719 C 104.453125 162.089844 104.894531 162.628906 105.386719 163.121094 C 105.878906 163.613281 106.417969 164.054688 107 164.441406 C 107.578125 164.832031 108.191406 165.15625 108.835938 165.425781 C 109.484375 165.691406 110.148438 165.894531 110.832031 166.03125 C 111.515625 166.164062 112.210938 166.234375 112.90625 166.234375 L 146.941406 166.234375 C 145.578125 173.253906 144.871094 180.339844 144.816406 187.488281 C 144.804688 194.808594 145.550781 202.050781 147.058594 209.214844 C 148.5625 216.375 150.792969 223.304688 153.75 230.003906 L 91.636719 230.003906 C 90.9375 230.003906 90.246094 230.070312 89.5625 230.207031 C 88.875 230.34375 88.210938 230.542969 87.566406 230.8125 C 86.921875 231.078125 86.308594 231.40625 85.726562 231.792969 C 85.144531 232.179688 84.609375 232.621094 84.117188 233.117188 C 83.621094 233.609375 83.179688 234.144531 82.792969 234.726562 C 82.40625 235.304688 82.078125 235.917969 81.808594 236.5625 C 81.542969 237.207031 81.339844 237.871094 81.203125 238.558594 C 81.070312 239.242188 81 239.933594 81 240.628906 C 81 241.328125 81.070312 242.019531 81.203125 242.703125 C 81.339844 243.386719 81.542969 244.054688 81.808594 244.699219 C 82.078125 245.34375 82.40625 245.957031 82.792969 246.535156 C 83.179688 247.117188 83.621094 247.652344 84.117188 248.144531 C 84.609375 248.640625 85.144531 249.078125 85.726562 249.46875 C 86.308594 249.855469 86.921875 250.183594 87.566406 250.449219 C 88.210938 250.71875 88.875 250.917969 89.5625 251.054688 C 90.246094 251.191406 90.9375 251.257812 91.636719 251.257812 L 166.085938 251.257812 C 172.105469 259.414062 179.195312 266.5 187.355469 272.515625 L 176.722656 272.515625 C 176.023438 272.515625 175.332031 272.582031 174.648438 272.71875 C 173.960938 272.855469 173.296875 273.058594 172.652344 273.324219 C 172.007812 273.589844 171.394531 273.917969 170.8125 274.304688 C 170.230469 274.695312 169.695312 275.132812 169.199219 275.628906 C 168.707031 276.121094 168.265625 276.65625 167.878906 277.238281 C 167.492188 277.820312 167.164062 278.429688 166.894531 279.074219 C 166.628906 279.71875 166.425781 280.386719 166.289062 281.070312 C 166.152344 281.753906 166.085938 282.445312 166.085938 283.144531 C 166.085938 283.839844 166.152344 284.53125 166.289062 285.214844 C 166.425781 285.902344 166.628906 286.566406 166.894531 287.210938 C 167.164062 287.855469 167.492188 288.46875 167.878906 289.046875 C 168.265625 289.628906 168.707031 290.164062 169.199219 290.660156 C 169.695312 291.152344 170.230469 291.59375 170.8125 291.980469 C 171.394531 292.367188 172.007812 292.695312 172.652344 292.960938 C 173.296875 293.230469 173.960938 293.429688 174.648438 293.566406 C 175.332031 293.703125 176.023438 293.769531 176.722656 293.769531 L 251.171875 293.769531 C 252.910156 293.769531 254.652344 293.726562 256.390625 293.644531 C 258.128906 293.558594 259.863281 293.429688 261.597656 293.257812 C 263.328125 293.089844 265.054688 292.875 266.777344 292.621094 C 268.5 292.367188 270.214844 292.066406 271.921875 291.730469 C 273.628906 291.390625 275.324219 291.007812 277.015625 290.585938 C 278.703125 290.164062 280.378906 289.699219 282.046875 289.195312 C 283.710938 288.691406 285.363281 288.144531 287.003906 287.558594 C 288.640625 286.972656 290.265625 286.347656 291.871094 285.679688 C 293.480469 285.015625 295.070312 284.3125 296.644531 283.566406 C 298.21875 282.824219 299.773438 282.042969 301.308594 281.222656 C 302.84375 280.402344 304.355469 279.542969 305.851562 278.652344 C 307.34375 277.757812 308.8125 276.824219 310.261719 275.859375 C 311.707031 274.894531 313.128906 273.890625 314.527344 272.855469 C 315.925781 271.820312 317.296875 270.75 318.644531 269.648438 C 319.988281 268.542969 321.308594 267.40625 322.597656 266.238281 C 323.886719 265.070312 325.144531 263.871094 326.378906 262.640625 C 327.609375 261.414062 328.808594 260.152344 329.976562 258.863281 C 331.144531 257.574219 332.28125 256.257812 333.386719 254.914062 C 334.492188 253.570312 335.5625 252.199219 336.597656 250.800781 C 337.636719 249.40625 338.636719 247.984375 339.605469 246.535156 C 340.570312 245.089844 341.503906 243.621094 342.398438 242.128906 C 343.292969 240.636719 344.148438 239.125 344.96875 237.589844 C 345.789062 236.058594 346.574219 234.503906 347.316406 232.929688 C 348.0625 231.359375 348.765625 229.769531 349.433594 228.164062 C 350.097656 226.554688 350.726562 224.933594 351.3125 223.296875 C 351.898438 221.65625 352.445312 220.007812 352.949219 218.34375 C 353.453125 216.675781 353.917969 215 354.339844 213.3125 C 354.765625 211.628906 355.144531 209.929688 355.484375 208.222656 C 355.824219 206.519531 356.121094 204.804688 356.378906 203.085938 C 356.632812 201.363281 356.84375 199.636719 357.015625 197.90625 C 357.1875 196.175781 357.316406 194.441406 357.398438 192.707031 C 357.484375 190.96875 357.527344 189.230469 357.527344 187.488281 C 357.527344 185.75 357.484375 184.011719 357.398438 182.273438 C 357.316406 180.539062 357.1875 178.804688 357.015625 177.074219 C 356.84375 175.34375 356.632812 173.617188 356.378906 171.894531 C 356.121094 170.175781 355.824219 168.460938 355.484375 166.753906 C 355.144531 165.050781 354.765625 163.351562 354.339844 161.667969 C 353.917969 159.980469 353.453125 158.304688 352.949219 156.636719 C 352.445312 154.972656 351.898438 153.324219 351.3125 151.683594 C 350.726562 150.046875 350.097656 148.425781 349.433594 146.816406 C 348.765625 145.210938 348.0625 143.621094 347.316406 142.050781 C 346.574219 140.476562 345.789062 138.921875 344.96875 137.390625 C 344.148438 135.855469 343.292969 134.34375 342.398438 132.851562 C 341.503906 131.359375 340.570312 129.890625 339.605469 128.445312 C 338.636719 126.996094 337.636719 125.574219 336.597656 124.179688 C 335.5625 122.78125 334.492188 121.410156 333.386719 120.066406 C 332.28125 118.722656 331.144531 117.40625 329.976562 116.117188 C 328.808594 114.828125 327.609375 113.566406 326.378906 112.339844 C 325.144531 111.109375 323.886719 109.910156 322.597656 108.742188 C 321.308594 107.574219 319.988281 106.4375 318.644531 105.332031 C 317.296875 104.230469 315.925781 103.160156 314.527344 102.125 C 313.128906 101.089844 311.707031 100.085938 310.261719 99.121094 C 308.8125 98.15625 307.34375 97.222656 305.851562 96.328125 C 304.355469 95.4375 302.84375 94.578125 301.308594 93.757812 C 299.773438 92.9375 298.21875 92.15625 296.644531 91.414062 C 295.070312 90.667969 293.480469 89.964844 291.871094 89.300781 C 290.265625 88.632812 288.640625 88.007812 287.003906 87.421875 C 285.363281 86.835938 283.710938 86.289062 282.046875 85.785156 C 280.378906 85.28125 278.703125 84.816406 277.015625 84.394531 C 275.324219 83.972656 273.628906 83.589844 271.921875 83.25 C 270.214844 82.910156 268.5 82.613281 266.777344 82.359375 C 265.054688 82.105469 263.328125 81.890625 261.597656 81.722656 C 259.863281 81.550781 258.128906 81.421875 256.390625 81.335938 C 254.652344 81.25 252.910156 81.210938 251.171875 81.210938 L 27.820312 81.210938 C 27.125 81.210938 26.433594 81.277344 25.746094 81.414062 C 25.0625 81.550781 24.398438 81.75 23.75 82.019531 C 23.105469 82.285156 22.492188 82.613281 21.914062 83 C 21.332031 83.386719 20.796875 83.828125 20.300781 84.320312 C 19.808594 84.816406 19.367188 85.351562 18.980469 85.933594 C 18.589844 86.511719 18.261719 87.125 17.996094 87.769531 C 17.726562 88.414062 17.527344 89.078125 17.390625 89.765625 C 17.253906 90.449219 17.1875 91.140625 17.1875 91.835938 C 17.1875 92.535156 17.253906 93.226562 17.390625 93.910156 C 17.527344 94.59375 17.726562 95.261719 17.996094 95.90625 C 18.261719 96.550781 18.589844 97.160156 18.980469 97.742188 C 19.367188 98.320312 19.808594 98.859375 20.300781 99.351562 C 20.796875 99.847656 21.332031 100.285156 21.914062 100.675781 C 22.492188 101.0625 23.105469 101.390625 23.75 101.65625 C 24.398438 101.921875 25.0625 102.125 25.746094 102.261719 C 26.433594 102.398438 27.125 102.464844 27.820312 102.464844 Z M 336.257812 187.488281 C 336.257812 188.882812 336.222656 190.273438 336.15625 191.664062 C 336.085938 193.050781 335.984375 194.4375 335.847656 195.824219 C 335.710938 197.207031 335.539062 198.589844 335.335938 199.964844 C 335.132812 201.34375 334.894531 202.714844 334.621094 204.078125 C 334.351562 205.441406 334.046875 206.800781 333.707031 208.148438 C 333.367188 209.5 332.996094 210.839844 332.59375 212.171875 C 332.1875 213.503906 331.753906 214.824219 331.285156 216.132812 C 330.8125 217.445312 330.3125 218.742188 329.78125 220.027344 C 329.246094 221.3125 328.683594 222.585938 328.089844 223.84375 C 327.492188 225.101562 326.867188 226.34375 326.210938 227.570312 C 325.554688 228.796875 324.867188 230.007812 324.152344 231.203125 C 323.4375 232.394531 322.691406 233.570312 321.917969 234.726562 C 321.144531 235.882812 320.34375 237.023438 319.511719 238.140625 C 318.683594 239.257812 317.828125 240.355469 316.945312 241.429688 C 316.058594 242.503906 315.152344 243.558594 314.214844 244.589844 C 313.28125 245.621094 312.320312 246.628906 311.335938 247.613281 C 310.351562 248.597656 309.34375 249.554688 308.3125 250.488281 C 307.28125 251.425781 306.226562 252.332031 305.148438 253.214844 C 304.074219 254.097656 302.976562 254.953125 301.855469 255.78125 C 300.738281 256.613281 299.601562 257.414062 298.441406 258.1875 C 297.285156 258.957031 296.109375 259.703125 294.914062 260.417969 C 293.71875 261.132812 292.507812 261.820312 291.28125 262.476562 C 290.050781 263.132812 288.808594 263.757812 287.550781 264.351562 C 286.292969 264.945312 285.019531 265.511719 283.730469 266.042969 C 282.445312 266.574219 281.148438 267.074219 279.835938 267.542969 C 278.523438 268.011719 277.203125 268.449219 275.871094 268.855469 C 274.539062 269.257812 273.195312 269.628906 271.84375 269.96875 C 270.496094 270.304688 269.136719 270.609375 267.769531 270.882812 C 266.40625 271.152344 265.035156 271.390625 263.65625 271.59375 C 262.277344 271.800781 260.898438 271.96875 259.511719 272.105469 C 258.125 272.242188 256.738281 272.34375 255.347656 272.414062 C 253.957031 272.480469 252.5625 272.515625 251.171875 272.515625 C 249.777344 272.515625 248.386719 272.480469 246.996094 272.414062 C 245.605469 272.34375 244.21875 272.242188 242.832031 272.105469 C 241.445312 271.96875 240.0625 271.800781 238.6875 271.59375 C 237.308594 271.390625 235.9375 271.152344 234.570312 270.882812 C 233.207031 270.609375 231.847656 270.304688 230.496094 269.96875 C 229.148438 269.628906 227.804688 269.257812 226.472656 268.855469 C 225.140625 268.449219 223.816406 268.011719 222.507812 267.542969 C 221.195312 267.074219 219.898438 266.574219 218.609375 266.042969 C 217.324219 265.511719 216.050781 264.945312 214.792969 264.351562 C 213.535156 263.757812 212.289062 263.132812 211.0625 262.476562 C 209.835938 261.820312 208.625 261.132812 207.429688 260.417969 C 206.234375 259.703125 205.058594 258.957031 203.902344 258.1875 C 202.742188 257.414062 201.605469 256.613281 200.484375 255.78125 C 199.367188 254.953125 198.269531 254.097656 197.195312 253.214844 C 196.117188 252.332031 195.0625 251.425781 194.03125 250.488281 C 193 249.554688 191.992188 248.597656 191.007812 247.613281 C 190.023438 246.628906 189.0625 245.621094 188.128906 244.589844 C 187.191406 243.558594 186.28125 242.503906 185.398438 241.429688 C 184.515625 240.355469 183.660156 239.257812 182.832031 238.140625 C 182 237.023438 181.199219 235.882812 180.425781 234.726562 C 179.652344 233.570312 178.90625 232.394531 178.191406 231.203125 C 177.476562 230.007812 176.789062 228.796875 176.132812 227.570312 C 175.476562 226.34375 174.851562 225.101562 174.253906 223.84375 C 173.660156 222.585938 173.09375 221.3125 172.5625 220.027344 C 172.03125 218.742188 171.527344 217.445312 171.058594 216.132812 C 170.589844 214.824219 170.152344 213.503906 169.75 212.171875 C 169.34375 210.839844 168.972656 209.5 168.636719 208.148438 C 168.296875 206.800781 167.992188 205.441406 167.722656 204.078125 C 167.449219 202.714844 167.210938 201.34375 167.007812 199.964844 C 166.800781 198.589844 166.632812 197.207031 166.496094 195.824219 C 166.359375 194.4375 166.257812 193.050781 166.1875 191.664062 C 166.121094 190.273438 166.085938 188.882812 166.085938 187.488281 C 166.085938 186.097656 166.121094 184.707031 166.1875 183.316406 C 166.257812 181.929688 166.359375 180.542969 166.496094 179.15625 C 166.632812 177.773438 166.800781 176.390625 167.007812 175.015625 C 167.210938 173.636719 167.449219 172.265625 167.722656 170.902344 C 167.992188 169.539062 168.296875 168.179688 168.636719 166.832031 C 168.972656 165.480469 169.34375 164.140625 169.75 162.808594 C 170.152344 161.476562 170.589844 160.15625 171.058594 158.847656 C 171.527344 157.535156 172.03125 156.238281 172.5625 154.953125 C 173.09375 153.667969 173.660156 152.394531 174.253906 151.136719 C 174.851562 149.878906 175.476562 148.636719 176.132812 147.410156 C 176.789062 146.183594 177.476562 144.972656 178.191406 143.777344 C 178.90625 142.585938 179.652344 141.410156 180.425781 140.253906 C 181.199219 139.097656 182 137.957031 182.832031 136.839844 C 183.660156 135.722656 184.515625 134.625 185.398438 133.550781 C 186.28125 132.476562 187.191406 131.421875 188.128906 130.390625 C 189.0625 129.359375 190.023438 128.351562 191.007812 127.367188 C 191.992188 126.382812 193 125.425781 194.03125 124.492188 C 195.0625 123.554688 196.117188 122.648438 197.195312 121.765625 C 198.269531 120.882812 199.367188 120.027344 200.484375 119.199219 C 201.605469 118.367188 202.742188 117.566406 203.902344 116.792969 C 205.058594 116.023438 206.234375 115.277344 207.429688 114.5625 C 208.625 113.847656 209.835938 113.160156 211.0625 112.503906 C 212.289062 111.847656 213.535156 111.222656 214.792969 110.628906 C 216.050781 110.035156 217.324219 109.46875 218.609375 108.9375 C 219.898438 108.40625 221.195312 107.90625 222.507812 107.4375 C 223.816406 106.96875 225.140625 106.53125 226.472656 106.125 C 227.804688 105.722656 229.148438 105.351562 230.496094 105.011719 C 231.847656 104.675781 233.207031 104.371094 234.570312 104.097656 C 235.9375 103.828125 237.308594 103.589844 238.6875 103.386719 C 240.0625 103.179688 241.445312 103.011719 242.832031 102.875 C 244.21875 102.738281 245.605469 102.636719 246.996094 102.566406 C 248.386719 102.5 249.777344 102.464844 251.171875 102.464844 C 252.5625 102.464844 253.957031 102.5 255.347656 102.566406 C 256.738281 102.636719 258.125 102.738281 259.511719 102.875 C 260.898438 103.011719 262.277344 103.179688 263.65625 103.386719 C 265.035156 103.589844 266.40625 103.828125 267.769531 104.097656 C 269.136719 104.371094 270.496094 104.675781 271.84375 105.011719 C 273.195312 105.351562 274.539062 105.722656 275.871094 106.125 C 277.203125 106.53125 278.523438 106.96875 279.835938 107.4375 C 281.148438 107.90625 282.445312 108.40625 283.730469 108.9375 C 285.019531 109.46875 286.292969 110.035156 287.550781 110.628906 C 288.808594 111.222656 290.050781 111.847656 291.28125 112.503906 C 292.507812 113.160156 293.71875 113.847656 294.914062 114.5625 C 296.109375 115.277344 297.285156 116.023438 298.441406 116.792969 C 299.601562 117.566406 300.738281 118.367188 301.855469 119.199219 C 302.976562 120.027344 304.074219 120.882812 305.148438 121.765625 C 306.226562 122.648438 307.28125 123.554688 308.3125 124.492188 C 309.34375 125.425781 310.351562 126.382812 311.335938 127.367188 C 312.320312 128.351562 313.28125 129.359375 314.214844 130.390625 C 315.152344 131.421875 316.058594 132.476562 316.945312 133.550781 C 317.828125 134.625 318.683594 135.722656 319.511719 136.839844 C 320.34375 137.957031 321.144531 139.097656 321.917969 140.253906 C 322.691406 141.410156 323.4375 142.585938 324.152344 143.777344 C 324.867188 144.972656 325.554688 146.183594 326.210938 147.410156 C 326.867188 148.636719 327.492188 149.878906 328.089844 151.136719 C 328.683594 152.394531 329.246094 153.667969 329.78125 154.953125 C 330.3125 156.238281 330.8125 157.535156 331.285156 158.847656 C 331.753906 160.15625 332.1875 161.476562 332.59375 162.808594 C 332.996094 164.140625 333.367188 165.480469 333.707031 166.832031 C 334.046875 168.179688 334.351562 169.539062 334.621094 170.902344 C 334.894531 172.265625 335.132812 173.636719 335.335938 175.015625 C 335.539062 176.390625 335.710938 177.773438 335.847656 179.15625 C 335.984375 180.542969 336.085938 181.929688 336.15625 183.316406 C 336.222656 184.707031 336.257812 186.097656 336.257812 187.488281 Z M 336.257812 187.488281 " fill-opacity="1" fill-rule="nonzero"/></g><g clip-path="url(#ea30a9e2be)"><path fill="#ffffff" d="M 112.90625 272.515625 L 49.09375 272.515625 C 48.394531 272.515625 47.703125 272.582031 47.019531 272.71875 C 46.332031 272.855469 45.667969 273.058594 45.023438 273.324219 C 44.378906 273.589844 43.765625 273.917969 43.183594 274.304688 C 42.605469 274.695312 42.066406 275.132812 41.574219 275.628906 C 41.078125 276.121094 40.636719 276.65625 40.25 277.238281 C 39.863281 277.820312 39.535156 278.429688 39.265625 279.074219 C 39 279.71875 38.796875 280.386719 38.660156 281.070312 C 38.527344 281.753906 38.457031 282.445312 38.457031 283.144531 C 38.457031 283.839844 38.527344 284.53125 38.660156 285.214844 C 38.796875 285.902344 39 286.566406 39.265625 287.210938 C 39.535156 287.855469 39.863281 288.46875 40.25 289.046875 C 40.636719 289.628906 41.078125 290.164062 41.574219 290.660156 C 42.066406 291.152344 42.605469 291.59375 43.183594 291.980469 C 43.765625 292.367188 44.378906 292.695312 45.023438 292.960938 C 45.667969 293.230469 46.332031 293.429688 47.019531 293.566406 C 47.703125 293.703125 48.394531 293.769531 49.09375 293.769531 L 112.90625 293.769531 C 113.605469 293.769531 114.296875 293.703125 114.980469 293.566406 C 115.667969 293.429688 116.332031 293.230469 116.976562 292.960938 C 117.621094 292.695312 118.234375 292.367188 118.816406 291.980469 C 119.398438 291.59375 119.933594 291.152344 120.429688 290.660156 C 120.921875 290.164062 121.363281 289.628906 121.75 289.046875 C 122.136719 288.46875 122.464844 287.855469 122.734375 287.210938 C 123 286.566406 123.203125 285.902344 123.339844 285.214844 C 123.476562 284.53125 123.542969 283.839844 123.542969 283.144531 C 123.542969 282.445312 123.476562 281.753906 123.339844 281.070312 C 123.203125 280.386719 123 279.71875 122.734375 279.074219 C 122.464844 278.429688 122.136719 277.820312 121.75 277.238281 C 121.363281 276.65625 120.921875 276.121094 120.429688 275.628906 C 119.933594 275.132812 119.398438 274.695312 118.816406 274.304688 C 118.234375 273.917969 117.621094 273.589844 116.976562 273.324219 C 116.332031 273.058594 115.667969 272.855469 114.980469 272.71875 C 114.296875 272.582031 113.605469 272.515625 112.90625 272.515625 Z M 112.90625 272.515625 " fill-opacity="1" fill-rule="nonzero"/></g><g clip-path="url(#a99b89de81)"><path fill="#ffffff" d="M 102.273438 198.117188 C 102.273438 197.421875 102.203125 196.730469 102.066406 196.042969 C 101.929688 195.359375 101.730469 194.695312 101.460938 194.050781 C 101.195312 193.40625 100.867188 192.792969 100.480469 192.214844 C 100.089844 191.632812 99.652344 191.097656 99.15625 190.601562 C 98.664062 190.109375 98.125 189.667969 97.542969 189.28125 C 96.964844 188.894531 96.351562 188.566406 95.707031 188.300781 C 95.0625 188.03125 94.394531 187.832031 93.710938 187.695312 C 93.027344 187.558594 92.335938 187.488281 91.636719 187.488281 L 27.820312 187.488281 C 27.125 187.488281 26.433594 187.558594 25.746094 187.695312 C 25.0625 187.832031 24.398438 188.03125 23.75 188.300781 C 23.105469 188.566406 22.492188 188.894531 21.914062 189.28125 C 21.332031 189.667969 20.796875 190.109375 20.300781 190.601562 C 19.808594 191.097656 19.367188 191.632812 18.980469 192.214844 C 18.589844 192.792969 18.261719 193.40625 17.996094 194.050781 C 17.726562 194.695312 17.527344 195.359375 17.390625 196.042969 C 17.253906 196.730469 17.1875 197.421875 17.1875 198.117188 C 17.1875 198.816406 17.253906 199.507812 17.390625 200.191406 C 17.527344 200.875 17.726562 201.539062 17.996094 202.183594 C 18.261719 202.832031 18.589844 203.441406 18.980469 204.023438 C 19.367188 204.601562 19.808594 205.140625 20.300781 205.632812 C 20.796875 206.128906 21.332031 206.566406 21.914062 206.957031 C 22.492188 207.34375 23.105469 207.671875 23.75 207.9375 C 24.398438 208.203125 25.0625 208.40625 25.746094 208.542969 C 26.433594 208.679688 27.125 208.746094 27.820312 208.746094 L 91.636719 208.746094 C 92.335938 208.746094 93.027344 208.679688 93.710938 208.542969 C 94.394531 208.40625 95.0625 208.203125 95.707031 207.9375 C 96.351562 207.671875 96.964844 207.34375 97.542969 206.957031 C 98.125 206.566406 98.664062 206.125 99.15625 205.632812 C 99.648438 205.140625 100.089844 204.601562 100.480469 204.023438 C 100.867188 203.441406 101.195312 202.832031 101.460938 202.183594 C 101.730469 201.539062 101.929688 200.875 102.066406 200.191406 C 102.203125 199.507812 102.273438 198.816406 102.273438 198.117188 Z M 102.273438 198.117188 " fill-opacity="1" fill-rule="nonzero"/></g></svg>